<mxfile host="app.diagrams.net" modified="2023-12-13T21:35:11.776Z" agent="Mozilla/5.0 (Windows NT 10.0; Win64; x64) AppleWebKit/537.36 (KHTML, like Gecko) Chrome/118.0.0.0 Safari/537.36 OPR/104.0.0.0" etag="2-drFncTRS1Bp505Q8LT" version="22.1.8" type="device">
  <diagram id="R2lEEEUBdFMjLlhIrx00" name="Page-1">
    <mxGraphModel dx="2033" dy="1158" grid="0" gridSize="10" guides="1" tooltips="1" connect="1" arrows="1" fold="1" page="0" pageScale="1" pageWidth="850" pageHeight="1100" math="0" shadow="0" extFonts="Permanent Marker^https://fonts.googleapis.com/css?family=Permanent+Marker">
      <root>
        <mxCell id="0" />
        <mxCell id="1" parent="0" />
        <mxCell id="C-vyLk0tnHw3VtMMgP7b-2" value="Events" style="shape=table;startSize=30;container=1;collapsible=1;childLayout=tableLayout;fixedRows=1;rowLines=0;fontStyle=1;align=center;resizeLast=1;" parent="1" vertex="1">
          <mxGeometry x="332" y="88" width="267.8571428571429" height="600.4761904761903" as="geometry" />
        </mxCell>
        <mxCell id="C-vyLk0tnHw3VtMMgP7b-3" value="" style="shape=partialRectangle;collapsible=0;dropTarget=0;pointerEvents=0;fillColor=none;points=[[0,0.5],[1,0.5]];portConstraint=eastwest;top=0;left=0;right=0;bottom=1;" parent="C-vyLk0tnHw3VtMMgP7b-2" vertex="1">
          <mxGeometry y="30" width="267.8571428571429" height="30" as="geometry" />
        </mxCell>
        <mxCell id="C-vyLk0tnHw3VtMMgP7b-4" value="PK" style="shape=partialRectangle;overflow=hidden;connectable=0;fillColor=none;top=0;left=0;bottom=0;right=0;fontStyle=1;" parent="C-vyLk0tnHw3VtMMgP7b-3" vertex="1">
          <mxGeometry width="30" height="30" as="geometry">
            <mxRectangle width="30" height="30" as="alternateBounds" />
          </mxGeometry>
        </mxCell>
        <mxCell id="C-vyLk0tnHw3VtMMgP7b-5" value="EventId: UUID" style="shape=partialRectangle;overflow=hidden;connectable=0;fillColor=none;top=0;left=0;bottom=0;right=0;align=left;spacingLeft=6;fontStyle=5;" parent="C-vyLk0tnHw3VtMMgP7b-3" vertex="1">
          <mxGeometry x="30" width="237.8571428571429" height="30" as="geometry">
            <mxRectangle width="237.8571428571429" height="30" as="alternateBounds" />
          </mxGeometry>
        </mxCell>
        <mxCell id="C-vyLk0tnHw3VtMMgP7b-6" value="" style="shape=partialRectangle;collapsible=0;dropTarget=0;pointerEvents=0;fillColor=none;points=[[0,0.5],[1,0.5]];portConstraint=eastwest;top=0;left=0;right=0;bottom=0;" parent="C-vyLk0tnHw3VtMMgP7b-2" vertex="1">
          <mxGeometry y="60" width="267.8571428571429" height="30" as="geometry" />
        </mxCell>
        <mxCell id="C-vyLk0tnHw3VtMMgP7b-7" value="FK" style="shape=partialRectangle;overflow=hidden;connectable=0;fillColor=none;top=0;left=0;bottom=0;right=0;" parent="C-vyLk0tnHw3VtMMgP7b-6" vertex="1">
          <mxGeometry width="30" height="30" as="geometry">
            <mxRectangle width="30" height="30" as="alternateBounds" />
          </mxGeometry>
        </mxCell>
        <mxCell id="C-vyLk0tnHw3VtMMgP7b-8" value="GameId" style="shape=partialRectangle;overflow=hidden;connectable=0;fillColor=none;top=0;left=0;bottom=0;right=0;align=left;spacingLeft=6;" parent="C-vyLk0tnHw3VtMMgP7b-6" vertex="1">
          <mxGeometry x="30" width="237.8571428571429" height="30" as="geometry">
            <mxRectangle width="237.8571428571429" height="30" as="alternateBounds" />
          </mxGeometry>
        </mxCell>
        <mxCell id="C-vyLk0tnHw3VtMMgP7b-9" value="" style="shape=partialRectangle;collapsible=0;dropTarget=0;pointerEvents=0;fillColor=none;points=[[0,0.5],[1,0.5]];portConstraint=eastwest;top=0;left=0;right=0;bottom=0;" parent="C-vyLk0tnHw3VtMMgP7b-2" vertex="1">
          <mxGeometry y="90" width="267.8571428571429" height="30" as="geometry" />
        </mxCell>
        <mxCell id="C-vyLk0tnHw3VtMMgP7b-10" value="" style="shape=partialRectangle;overflow=hidden;connectable=0;fillColor=none;top=0;left=0;bottom=0;right=0;" parent="C-vyLk0tnHw3VtMMgP7b-9" vertex="1">
          <mxGeometry width="30" height="30" as="geometry">
            <mxRectangle width="30" height="30" as="alternateBounds" />
          </mxGeometry>
        </mxCell>
        <mxCell id="C-vyLk0tnHw3VtMMgP7b-11" value="EventName: Varchar(50)" style="shape=partialRectangle;overflow=hidden;connectable=0;fillColor=none;top=0;left=0;bottom=0;right=0;align=left;spacingLeft=6;" parent="C-vyLk0tnHw3VtMMgP7b-9" vertex="1">
          <mxGeometry x="30" width="237.8571428571429" height="30" as="geometry">
            <mxRectangle width="237.8571428571429" height="30" as="alternateBounds" />
          </mxGeometry>
        </mxCell>
        <mxCell id="4wsXO7ddn7WPQWlqq9JL-10" value="" style="shape=tableRow;horizontal=0;startSize=0;swimlaneHead=0;swimlaneBody=0;fillColor=none;collapsible=0;dropTarget=0;points=[[0,0.5],[1,0.5]];portConstraint=eastwest;top=0;left=0;right=0;bottom=0;" parent="C-vyLk0tnHw3VtMMgP7b-2" vertex="1">
          <mxGeometry y="120" width="267.8571428571429" height="30" as="geometry" />
        </mxCell>
        <mxCell id="4wsXO7ddn7WPQWlqq9JL-11" value="" style="shape=partialRectangle;connectable=0;fillColor=none;top=0;left=0;bottom=0;right=0;fontStyle=0;overflow=hidden;whiteSpace=wrap;html=1;" parent="4wsXO7ddn7WPQWlqq9JL-10" vertex="1">
          <mxGeometry width="30" height="30" as="geometry">
            <mxRectangle width="30" height="30" as="alternateBounds" />
          </mxGeometry>
        </mxCell>
        <mxCell id="4wsXO7ddn7WPQWlqq9JL-12" value="StartDate: TimeStamp" style="shape=partialRectangle;connectable=0;fillColor=none;top=0;left=0;bottom=0;right=0;align=left;spacingLeft=6;fontStyle=0;overflow=hidden;whiteSpace=wrap;html=1;" parent="4wsXO7ddn7WPQWlqq9JL-10" vertex="1">
          <mxGeometry x="30" width="237.8571428571429" height="30" as="geometry">
            <mxRectangle width="237.8571428571429" height="30" as="alternateBounds" />
          </mxGeometry>
        </mxCell>
        <mxCell id="4wsXO7ddn7WPQWlqq9JL-21" value="" style="shape=tableRow;horizontal=0;startSize=0;swimlaneHead=0;swimlaneBody=0;fillColor=none;collapsible=0;dropTarget=0;points=[[0,0.5],[1,0.5]];portConstraint=eastwest;top=0;left=0;right=0;bottom=0;" parent="C-vyLk0tnHw3VtMMgP7b-2" vertex="1">
          <mxGeometry y="150" width="267.8571428571429" height="30" as="geometry" />
        </mxCell>
        <mxCell id="4wsXO7ddn7WPQWlqq9JL-22" value="FK" style="shape=partialRectangle;connectable=0;fillColor=none;top=0;left=0;bottom=0;right=0;editable=1;overflow=hidden;" parent="4wsXO7ddn7WPQWlqq9JL-21" vertex="1">
          <mxGeometry width="30" height="30" as="geometry">
            <mxRectangle width="30" height="30" as="alternateBounds" />
          </mxGeometry>
        </mxCell>
        <mxCell id="4wsXO7ddn7WPQWlqq9JL-23" value="Place" style="shape=partialRectangle;connectable=0;fillColor=none;top=0;left=0;bottom=0;right=0;align=left;spacingLeft=6;overflow=hidden;" parent="4wsXO7ddn7WPQWlqq9JL-21" vertex="1">
          <mxGeometry x="30" width="237.8571428571429" height="30" as="geometry">
            <mxRectangle width="237.8571428571429" height="30" as="alternateBounds" />
          </mxGeometry>
        </mxCell>
        <mxCell id="4wsXO7ddn7WPQWlqq9JL-25" value="" style="shape=tableRow;horizontal=0;startSize=0;swimlaneHead=0;swimlaneBody=0;fillColor=none;collapsible=0;dropTarget=0;points=[[0,0.5],[1,0.5]];portConstraint=eastwest;top=0;left=0;right=0;bottom=0;" parent="C-vyLk0tnHw3VtMMgP7b-2" vertex="1">
          <mxGeometry y="180" width="267.8571428571429" height="30" as="geometry" />
        </mxCell>
        <mxCell id="4wsXO7ddn7WPQWlqq9JL-26" value="" style="shape=partialRectangle;connectable=0;fillColor=none;top=0;left=0;bottom=0;right=0;editable=1;overflow=hidden;" parent="4wsXO7ddn7WPQWlqq9JL-25" vertex="1">
          <mxGeometry width="30" height="30" as="geometry">
            <mxRectangle width="30" height="30" as="alternateBounds" />
          </mxGeometry>
        </mxCell>
        <mxCell id="4wsXO7ddn7WPQWlqq9JL-27" value="PricePerUser: Money" style="shape=partialRectangle;connectable=0;fillColor=none;top=0;left=0;bottom=0;right=0;align=left;spacingLeft=6;overflow=hidden;" parent="4wsXO7ddn7WPQWlqq9JL-25" vertex="1">
          <mxGeometry x="30" width="237.8571428571429" height="30" as="geometry">
            <mxRectangle width="237.8571428571429" height="30" as="alternateBounds" />
          </mxGeometry>
        </mxCell>
        <mxCell id="4wsXO7ddn7WPQWlqq9JL-28" value="" style="shape=tableRow;horizontal=0;startSize=0;swimlaneHead=0;swimlaneBody=0;fillColor=none;collapsible=0;dropTarget=0;points=[[0,0.5],[1,0.5]];portConstraint=eastwest;top=0;left=0;right=0;bottom=0;" parent="C-vyLk0tnHw3VtMMgP7b-2" vertex="1">
          <mxGeometry y="210" width="267.8571428571429" height="30" as="geometry" />
        </mxCell>
        <mxCell id="4wsXO7ddn7WPQWlqq9JL-29" value="" style="shape=partialRectangle;connectable=0;fillColor=none;top=0;left=0;bottom=0;right=0;editable=1;overflow=hidden;" parent="4wsXO7ddn7WPQWlqq9JL-28" vertex="1">
          <mxGeometry width="30" height="30" as="geometry">
            <mxRectangle width="30" height="30" as="alternateBounds" />
          </mxGeometry>
        </mxCell>
        <mxCell id="4wsXO7ddn7WPQWlqq9JL-30" value="TechnicalDescription: Varchar(1000)" style="shape=partialRectangle;connectable=0;fillColor=none;top=0;left=0;bottom=0;right=0;align=left;spacingLeft=6;overflow=hidden;" parent="4wsXO7ddn7WPQWlqq9JL-28" vertex="1">
          <mxGeometry x="30" width="237.8571428571429" height="30" as="geometry">
            <mxRectangle width="237.8571428571429" height="30" as="alternateBounds" />
          </mxGeometry>
        </mxCell>
        <mxCell id="9Tws9IO79iOCBR9Tj7Y1-3" value="" style="shape=tableRow;horizontal=0;startSize=0;swimlaneHead=0;swimlaneBody=0;fillColor=none;collapsible=0;dropTarget=0;points=[[0,0.5],[1,0.5]];portConstraint=eastwest;top=0;left=0;right=0;bottom=0;" parent="C-vyLk0tnHw3VtMMgP7b-2" vertex="1">
          <mxGeometry y="240" width="267.8571428571429" height="30" as="geometry" />
        </mxCell>
        <mxCell id="9Tws9IO79iOCBR9Tj7Y1-4" value="" style="shape=partialRectangle;connectable=0;fillColor=none;top=0;left=0;bottom=0;right=0;editable=1;overflow=hidden;" parent="9Tws9IO79iOCBR9Tj7Y1-3" vertex="1">
          <mxGeometry width="30" height="30" as="geometry">
            <mxRectangle width="30" height="30" as="alternateBounds" />
          </mxGeometry>
        </mxCell>
        <mxCell id="9Tws9IO79iOCBR9Tj7Y1-5" value="DescriptionForClients: Varchar(1000)" style="shape=partialRectangle;connectable=0;fillColor=none;top=0;left=0;bottom=0;right=0;align=left;spacingLeft=6;overflow=hidden;" parent="9Tws9IO79iOCBR9Tj7Y1-3" vertex="1">
          <mxGeometry x="30" width="237.8571428571429" height="30" as="geometry">
            <mxRectangle width="237.8571428571429" height="30" as="alternateBounds" />
          </mxGeometry>
        </mxCell>
        <mxCell id="9Tws9IO79iOCBR9Tj7Y1-6" value="" style="shape=tableRow;horizontal=0;startSize=0;swimlaneHead=0;swimlaneBody=0;fillColor=none;collapsible=0;dropTarget=0;points=[[0,0.5],[1,0.5]];portConstraint=eastwest;top=0;left=0;right=0;bottom=0;" parent="C-vyLk0tnHw3VtMMgP7b-2" vertex="1">
          <mxGeometry y="270" width="267.8571428571429" height="30" as="geometry" />
        </mxCell>
        <mxCell id="9Tws9IO79iOCBR9Tj7Y1-7" value="" style="shape=partialRectangle;connectable=0;fillColor=none;top=0;left=0;bottom=0;right=0;editable=1;overflow=hidden;" parent="9Tws9IO79iOCBR9Tj7Y1-6" vertex="1">
          <mxGeometry width="30" height="30" as="geometry">
            <mxRectangle width="30" height="30" as="alternateBounds" />
          </mxGeometry>
        </mxCell>
        <mxCell id="9Tws9IO79iOCBR9Tj7Y1-8" value="DescriptionForEmployees: Varchar(1000)" style="shape=partialRectangle;connectable=0;fillColor=none;top=0;left=0;bottom=0;right=0;align=left;spacingLeft=6;overflow=hidden;" parent="9Tws9IO79iOCBR9Tj7Y1-6" vertex="1">
          <mxGeometry x="30" width="237.8571428571429" height="30" as="geometry">
            <mxRectangle width="237.8571428571429" height="30" as="alternateBounds" />
          </mxGeometry>
        </mxCell>
        <mxCell id="CWx529bwUQvuQtr-9syW-164" value="" style="shape=tableRow;horizontal=0;startSize=0;swimlaneHead=0;swimlaneBody=0;fillColor=none;collapsible=0;dropTarget=0;points=[[0,0.5],[1,0.5]];portConstraint=eastwest;top=0;left=0;right=0;bottom=0;" parent="C-vyLk0tnHw3VtMMgP7b-2" vertex="1">
          <mxGeometry y="300" width="267.8571428571429" height="30" as="geometry" />
        </mxCell>
        <mxCell id="CWx529bwUQvuQtr-9syW-165" value="" style="shape=partialRectangle;connectable=0;fillColor=none;top=0;left=0;bottom=0;right=0;editable=1;overflow=hidden;" parent="CWx529bwUQvuQtr-9syW-164" vertex="1">
          <mxGeometry width="30" height="30" as="geometry">
            <mxRectangle width="30" height="30" as="alternateBounds" />
          </mxGeometry>
        </mxCell>
        <mxCell id="CWx529bwUQvuQtr-9syW-166" value="Icon: Varchar(50)" style="shape=partialRectangle;connectable=0;fillColor=none;top=0;left=0;bottom=0;right=0;align=left;spacingLeft=6;overflow=hidden;" parent="CWx529bwUQvuQtr-9syW-164" vertex="1">
          <mxGeometry x="30" width="237.8571428571429" height="30" as="geometry">
            <mxRectangle width="237.8571428571429" height="30" as="alternateBounds" />
          </mxGeometry>
        </mxCell>
        <mxCell id="CWx529bwUQvuQtr-9syW-23" value="" style="shape=tableRow;horizontal=0;startSize=0;swimlaneHead=0;swimlaneBody=0;fillColor=none;collapsible=0;dropTarget=0;points=[[0,0.5],[1,0.5]];portConstraint=eastwest;top=0;left=0;right=0;bottom=0;" parent="C-vyLk0tnHw3VtMMgP7b-2" vertex="1">
          <mxGeometry y="330" width="267.8571428571429" height="30" as="geometry" />
        </mxCell>
        <mxCell id="CWx529bwUQvuQtr-9syW-24" value="" style="shape=partialRectangle;connectable=0;fillColor=none;top=0;left=0;bottom=0;right=0;editable=1;overflow=hidden;" parent="CWx529bwUQvuQtr-9syW-23" vertex="1">
          <mxGeometry width="30" height="30" as="geometry">
            <mxRectangle width="30" height="30" as="alternateBounds" />
          </mxGeometry>
        </mxCell>
        <mxCell id="CWx529bwUQvuQtr-9syW-25" value="EventState: Varchar(50)" style="shape=partialRectangle;connectable=0;fillColor=none;top=0;left=0;bottom=0;right=0;align=left;spacingLeft=6;overflow=hidden;" parent="CWx529bwUQvuQtr-9syW-23" vertex="1">
          <mxGeometry x="30" width="237.8571428571429" height="30" as="geometry">
            <mxRectangle width="237.8571428571429" height="30" as="alternateBounds" />
          </mxGeometry>
        </mxCell>
        <mxCell id="CWx529bwUQvuQtr-9syW-190" value="" style="shape=tableRow;horizontal=0;startSize=0;swimlaneHead=0;swimlaneBody=0;fillColor=none;collapsible=0;dropTarget=0;points=[[0,0.5],[1,0.5]];portConstraint=eastwest;top=0;left=0;right=0;bottom=0;" parent="C-vyLk0tnHw3VtMMgP7b-2" vertex="1">
          <mxGeometry y="360" width="267.8571428571429" height="30" as="geometry" />
        </mxCell>
        <mxCell id="CWx529bwUQvuQtr-9syW-191" value="" style="shape=partialRectangle;connectable=0;fillColor=none;top=0;left=0;bottom=0;right=0;editable=1;overflow=hidden;" parent="CWx529bwUQvuQtr-9syW-190" vertex="1">
          <mxGeometry width="30" height="30" as="geometry">
            <mxRectangle width="30" height="30" as="alternateBounds" />
          </mxGeometry>
        </mxCell>
        <mxCell id="CWx529bwUQvuQtr-9syW-192" value="EndDate: TimeStamp" style="shape=partialRectangle;connectable=0;fillColor=none;top=0;left=0;bottom=0;right=0;align=left;spacingLeft=6;overflow=hidden;" parent="CWx529bwUQvuQtr-9syW-190" vertex="1">
          <mxGeometry x="30" width="237.8571428571429" height="30" as="geometry">
            <mxRectangle width="237.8571428571429" height="30" as="alternateBounds" />
          </mxGeometry>
        </mxCell>
        <mxCell id="9Tws9IO79iOCBR9Tj7Y1-9" value="" style="shape=tableRow;horizontal=0;startSize=0;swimlaneHead=0;swimlaneBody=0;fillColor=none;collapsible=0;dropTarget=0;points=[[0,0.5],[1,0.5]];portConstraint=eastwest;top=0;left=0;right=0;bottom=0;" parent="C-vyLk0tnHw3VtMMgP7b-2" vertex="1">
          <mxGeometry y="390" width="267.8571428571429" height="30" as="geometry" />
        </mxCell>
        <mxCell id="9Tws9IO79iOCBR9Tj7Y1-10" value="" style="shape=partialRectangle;connectable=0;fillColor=none;top=0;left=0;bottom=0;right=0;editable=1;overflow=hidden;" parent="9Tws9IO79iOCBR9Tj7Y1-9" vertex="1">
          <mxGeometry width="30" height="30" as="geometry">
            <mxRectangle width="30" height="30" as="alternateBounds" />
          </mxGeometry>
        </mxCell>
        <mxCell id="9Tws9IO79iOCBR9Tj7Y1-11" value="OwnerEmail: Varchar(50)" style="shape=partialRectangle;connectable=0;fillColor=none;top=0;left=0;bottom=0;right=0;align=left;spacingLeft=6;overflow=hidden;" parent="9Tws9IO79iOCBR9Tj7Y1-9" vertex="1">
          <mxGeometry x="30" width="237.8571428571429" height="30" as="geometry">
            <mxRectangle width="237.8571428571429" height="30" as="alternateBounds" />
          </mxGeometry>
        </mxCell>
        <mxCell id="A7rGnYR7MRQ6kIk2kGhN-5" style="shape=tableRow;horizontal=0;startSize=0;swimlaneHead=0;swimlaneBody=0;fillColor=none;collapsible=0;dropTarget=0;points=[[0,0.5],[1,0.5]];portConstraint=eastwest;top=0;left=0;right=0;bottom=0;" parent="C-vyLk0tnHw3VtMMgP7b-2" vertex="1">
          <mxGeometry y="420" width="267.8571428571429" height="30" as="geometry" />
        </mxCell>
        <mxCell id="A7rGnYR7MRQ6kIk2kGhN-6" style="shape=partialRectangle;connectable=0;fillColor=none;top=0;left=0;bottom=0;right=0;editable=1;overflow=hidden;" parent="A7rGnYR7MRQ6kIk2kGhN-5" vertex="1">
          <mxGeometry width="30" height="30" as="geometry">
            <mxRectangle width="30" height="30" as="alternateBounds" />
          </mxGeometry>
        </mxCell>
        <mxCell id="A7rGnYR7MRQ6kIk2kGhN-7" value="PaidFor : Boolean" style="shape=partialRectangle;connectable=0;fillColor=none;top=0;left=0;bottom=0;right=0;align=left;spacingLeft=6;overflow=hidden;" parent="A7rGnYR7MRQ6kIk2kGhN-5" vertex="1">
          <mxGeometry x="30" width="237.8571428571429" height="30" as="geometry">
            <mxRectangle width="237.8571428571429" height="30" as="alternateBounds" />
          </mxGeometry>
        </mxCell>
        <mxCell id="XPzVo6sCSsLRnSMQqwxL-8" value="" style="shape=tableRow;horizontal=0;startSize=0;swimlaneHead=0;swimlaneBody=0;fillColor=none;collapsible=0;dropTarget=0;points=[[0,0.5],[1,0.5]];portConstraint=eastwest;top=0;left=0;right=0;bottom=0;" parent="C-vyLk0tnHw3VtMMgP7b-2" vertex="1">
          <mxGeometry y="450" width="267.8571428571429" height="30" as="geometry" />
        </mxCell>
        <mxCell id="XPzVo6sCSsLRnSMQqwxL-9" value="" style="shape=partialRectangle;connectable=0;fillColor=none;top=0;left=0;bottom=0;right=0;editable=1;overflow=hidden;" parent="XPzVo6sCSsLRnSMQqwxL-8" vertex="1">
          <mxGeometry width="30" height="30" as="geometry">
            <mxRectangle width="30" height="30" as="alternateBounds" />
          </mxGeometry>
        </mxCell>
        <mxCell id="XPzVo6sCSsLRnSMQqwxL-10" value="IsVisible: Boolean" style="shape=partialRectangle;connectable=0;fillColor=none;top=0;left=0;bottom=0;right=0;align=left;spacingLeft=6;overflow=hidden;" parent="XPzVo6sCSsLRnSMQqwxL-8" vertex="1">
          <mxGeometry x="30" width="237.8571428571429" height="30" as="geometry">
            <mxRectangle width="237.8571428571429" height="30" as="alternateBounds" />
          </mxGeometry>
        </mxCell>
        <mxCell id="XPzVo6sCSsLRnSMQqwxL-5" value="" style="shape=tableRow;horizontal=0;startSize=0;swimlaneHead=0;swimlaneBody=0;fillColor=none;collapsible=0;dropTarget=0;points=[[0,0.5],[1,0.5]];portConstraint=eastwest;top=0;left=0;right=0;bottom=0;" parent="C-vyLk0tnHw3VtMMgP7b-2" vertex="1">
          <mxGeometry y="480" width="267.8571428571429" height="30" as="geometry" />
        </mxCell>
        <mxCell id="XPzVo6sCSsLRnSMQqwxL-6" value="" style="shape=partialRectangle;connectable=0;fillColor=none;top=0;left=0;bottom=0;right=0;editable=1;overflow=hidden;" parent="XPzVo6sCSsLRnSMQqwxL-5" vertex="1">
          <mxGeometry width="30" height="30" as="geometry">
            <mxRectangle width="30" height="30" as="alternateBounds" />
          </mxGeometry>
        </mxCell>
        <mxCell id="XPzVo6sCSsLRnSMQqwxL-7" value="IsExternalOrginiser: Boolean" style="shape=partialRectangle;connectable=0;fillColor=none;top=0;left=0;bottom=0;right=0;align=left;spacingLeft=6;overflow=hidden;" parent="XPzVo6sCSsLRnSMQqwxL-5" vertex="1">
          <mxGeometry x="30" width="237.8571428571429" height="30" as="geometry">
            <mxRectangle width="237.8571428571429" height="30" as="alternateBounds" />
          </mxGeometry>
        </mxCell>
        <mxCell id="XPzVo6sCSsLRnSMQqwxL-2" value="" style="shape=tableRow;horizontal=0;startSize=0;swimlaneHead=0;swimlaneBody=0;fillColor=none;collapsible=0;dropTarget=0;points=[[0,0.5],[1,0.5]];portConstraint=eastwest;top=0;left=0;right=0;bottom=0;" parent="C-vyLk0tnHw3VtMMgP7b-2" vertex="1">
          <mxGeometry y="510" width="267.8571428571429" height="30" as="geometry" />
        </mxCell>
        <mxCell id="XPzVo6sCSsLRnSMQqwxL-3" value="" style="shape=partialRectangle;connectable=0;fillColor=none;top=0;left=0;bottom=0;right=0;editable=1;overflow=hidden;" parent="XPzVo6sCSsLRnSMQqwxL-2" vertex="1">
          <mxGeometry width="30" height="30" as="geometry">
            <mxRectangle width="30" height="30" as="alternateBounds" />
          </mxGeometry>
        </mxCell>
        <mxCell id="XPzVo6sCSsLRnSMQqwxL-4" value="MaxPlayerLimit: int" style="shape=partialRectangle;connectable=0;fillColor=none;top=0;left=0;bottom=0;right=0;align=left;spacingLeft=6;overflow=hidden;" parent="XPzVo6sCSsLRnSMQqwxL-2" vertex="1">
          <mxGeometry x="30" width="237.8571428571429" height="30" as="geometry">
            <mxRectangle width="237.8571428571429" height="30" as="alternateBounds" />
          </mxGeometry>
        </mxCell>
        <mxCell id="9Tws9IO79iOCBR9Tj7Y1-12" value="" style="shape=tableRow;horizontal=0;startSize=0;swimlaneHead=0;swimlaneBody=0;fillColor=none;collapsible=0;dropTarget=0;points=[[0,0.5],[1,0.5]];portConstraint=eastwest;top=0;left=0;right=0;bottom=0;" parent="C-vyLk0tnHw3VtMMgP7b-2" vertex="1">
          <mxGeometry y="540" width="267.8571428571429" height="30" as="geometry" />
        </mxCell>
        <mxCell id="9Tws9IO79iOCBR9Tj7Y1-13" value="" style="shape=partialRectangle;connectable=0;fillColor=none;top=0;left=0;bottom=0;right=0;editable=1;overflow=hidden;" parent="9Tws9IO79iOCBR9Tj7Y1-12" vertex="1">
          <mxGeometry width="30" height="30" as="geometry">
            <mxRectangle width="30" height="30" as="alternateBounds" />
          </mxGeometry>
        </mxCell>
        <mxCell id="9Tws9IO79iOCBR9Tj7Y1-14" value="EventPrice: Money" style="shape=partialRectangle;connectable=0;fillColor=none;top=0;left=0;bottom=0;right=0;align=left;spacingLeft=6;overflow=hidden;" parent="9Tws9IO79iOCBR9Tj7Y1-12" vertex="1">
          <mxGeometry x="30" width="237.8571428571429" height="30" as="geometry">
            <mxRectangle width="237.8571428571429" height="30" as="alternateBounds" />
          </mxGeometry>
        </mxCell>
        <mxCell id="SawxGzOYsBgWx7QVywLR-1" value="" style="shape=tableRow;horizontal=0;startSize=0;swimlaneHead=0;swimlaneBody=0;fillColor=none;collapsible=0;dropTarget=0;points=[[0,0.5],[1,0.5]];portConstraint=eastwest;top=0;left=0;right=0;bottom=0;" parent="C-vyLk0tnHw3VtMMgP7b-2" vertex="1">
          <mxGeometry y="570" width="267.8571428571429" height="30" as="geometry" />
        </mxCell>
        <mxCell id="SawxGzOYsBgWx7QVywLR-2" value="" style="shape=partialRectangle;connectable=0;fillColor=none;top=0;left=0;bottom=0;right=0;editable=1;overflow=hidden;" parent="SawxGzOYsBgWx7QVywLR-1" vertex="1">
          <mxGeometry width="30" height="30" as="geometry">
            <mxRectangle width="30" height="30" as="alternateBounds" />
          </mxGeometry>
        </mxCell>
        <mxCell id="SawxGzOYsBgWx7QVywLR-3" value="IsExternalOrganiser: boolean" style="shape=partialRectangle;connectable=0;fillColor=none;top=0;left=0;bottom=0;right=0;align=left;spacingLeft=6;overflow=hidden;" parent="SawxGzOYsBgWx7QVywLR-1" vertex="1">
          <mxGeometry x="30" width="237.8571428571429" height="30" as="geometry">
            <mxRectangle width="237.8571428571429" height="30" as="alternateBounds" />
          </mxGeometry>
        </mxCell>
        <mxCell id="C-vyLk0tnHw3VtMMgP7b-23" value="Games" style="shape=table;startSize=30;container=1;collapsible=1;childLayout=tableLayout;fixedRows=1;rowLines=0;fontStyle=1;align=center;resizeLast=1;" parent="1" vertex="1">
          <mxGeometry x="-0.9999999999999964" y="-46.68" width="250" height="390" as="geometry" />
        </mxCell>
        <mxCell id="C-vyLk0tnHw3VtMMgP7b-24" value="" style="shape=partialRectangle;collapsible=0;dropTarget=0;pointerEvents=0;fillColor=none;points=[[0,0.5],[1,0.5]];portConstraint=eastwest;top=0;left=0;right=0;bottom=1;" parent="C-vyLk0tnHw3VtMMgP7b-23" vertex="1">
          <mxGeometry y="30" width="250" height="30" as="geometry" />
        </mxCell>
        <mxCell id="C-vyLk0tnHw3VtMMgP7b-25" value="PK" style="shape=partialRectangle;overflow=hidden;connectable=0;fillColor=none;top=0;left=0;bottom=0;right=0;fontStyle=1;" parent="C-vyLk0tnHw3VtMMgP7b-24" vertex="1">
          <mxGeometry width="30" height="30" as="geometry">
            <mxRectangle width="30" height="30" as="alternateBounds" />
          </mxGeometry>
        </mxCell>
        <mxCell id="C-vyLk0tnHw3VtMMgP7b-26" value="GameId: UUID" style="shape=partialRectangle;overflow=hidden;connectable=0;fillColor=none;top=0;left=0;bottom=0;right=0;align=left;spacingLeft=6;fontStyle=5;" parent="C-vyLk0tnHw3VtMMgP7b-24" vertex="1">
          <mxGeometry x="30" width="220" height="30" as="geometry">
            <mxRectangle width="220" height="30" as="alternateBounds" />
          </mxGeometry>
        </mxCell>
        <mxCell id="C-vyLk0tnHw3VtMMgP7b-27" value="" style="shape=partialRectangle;collapsible=0;dropTarget=0;pointerEvents=0;fillColor=none;points=[[0,0.5],[1,0.5]];portConstraint=eastwest;top=0;left=0;right=0;bottom=0;" parent="C-vyLk0tnHw3VtMMgP7b-23" vertex="1">
          <mxGeometry y="60" width="250" height="30" as="geometry" />
        </mxCell>
        <mxCell id="C-vyLk0tnHw3VtMMgP7b-28" value="" style="shape=partialRectangle;overflow=hidden;connectable=0;fillColor=none;top=0;left=0;bottom=0;right=0;" parent="C-vyLk0tnHw3VtMMgP7b-27" vertex="1">
          <mxGeometry width="30" height="30" as="geometry">
            <mxRectangle width="30" height="30" as="alternateBounds" />
          </mxGeometry>
        </mxCell>
        <mxCell id="C-vyLk0tnHw3VtMMgP7b-29" value="GameName: Varchar(50)" style="shape=partialRectangle;overflow=hidden;connectable=0;fillColor=none;top=0;left=0;bottom=0;right=0;align=left;spacingLeft=6;" parent="C-vyLk0tnHw3VtMMgP7b-27" vertex="1">
          <mxGeometry x="30" width="220" height="30" as="geometry">
            <mxRectangle width="220" height="30" as="alternateBounds" />
          </mxGeometry>
        </mxCell>
        <mxCell id="4wsXO7ddn7WPQWlqq9JL-40" value="" style="shape=tableRow;horizontal=0;startSize=0;swimlaneHead=0;swimlaneBody=0;fillColor=none;collapsible=0;dropTarget=0;points=[[0,0.5],[1,0.5]];portConstraint=eastwest;top=0;left=0;right=0;bottom=0;" parent="C-vyLk0tnHw3VtMMgP7b-23" vertex="1">
          <mxGeometry y="90" width="250" height="30" as="geometry" />
        </mxCell>
        <mxCell id="4wsXO7ddn7WPQWlqq9JL-41" value="" style="shape=partialRectangle;connectable=0;fillColor=none;top=0;left=0;bottom=0;right=0;editable=1;overflow=hidden;" parent="4wsXO7ddn7WPQWlqq9JL-40" vertex="1">
          <mxGeometry width="30" height="30" as="geometry">
            <mxRectangle width="30" height="30" as="alternateBounds" />
          </mxGeometry>
        </mxCell>
        <mxCell id="4wsXO7ddn7WPQWlqq9JL-42" value="MaximumPlayers: int" style="shape=partialRectangle;connectable=0;fillColor=none;top=0;left=0;bottom=0;right=0;align=left;spacingLeft=6;overflow=hidden;" parent="4wsXO7ddn7WPQWlqq9JL-40" vertex="1">
          <mxGeometry x="30" width="220" height="30" as="geometry">
            <mxRectangle width="220" height="30" as="alternateBounds" />
          </mxGeometry>
        </mxCell>
        <mxCell id="4wsXO7ddn7WPQWlqq9JL-47" value="" style="shape=tableRow;horizontal=0;startSize=0;swimlaneHead=0;swimlaneBody=0;fillColor=none;collapsible=0;dropTarget=0;points=[[0,0.5],[1,0.5]];portConstraint=eastwest;top=0;left=0;right=0;bottom=0;" parent="C-vyLk0tnHw3VtMMgP7b-23" vertex="1">
          <mxGeometry y="120" width="250" height="30" as="geometry" />
        </mxCell>
        <mxCell id="4wsXO7ddn7WPQWlqq9JL-48" value="" style="shape=partialRectangle;connectable=0;fillColor=none;top=0;left=0;bottom=0;right=0;editable=1;overflow=hidden;" parent="4wsXO7ddn7WPQWlqq9JL-47" vertex="1">
          <mxGeometry width="30" height="30" as="geometry">
            <mxRectangle width="30" height="30" as="alternateBounds" />
          </mxGeometry>
        </mxCell>
        <mxCell id="4wsXO7ddn7WPQWlqq9JL-49" value="Difficulty: int" style="shape=partialRectangle;connectable=0;fillColor=none;top=0;left=0;bottom=0;right=0;align=left;spacingLeft=6;overflow=hidden;" parent="4wsXO7ddn7WPQWlqq9JL-47" vertex="1">
          <mxGeometry x="30" width="220" height="30" as="geometry">
            <mxRectangle width="220" height="30" as="alternateBounds" />
          </mxGeometry>
        </mxCell>
        <mxCell id="4wsXO7ddn7WPQWlqq9JL-50" value="" style="shape=tableRow;horizontal=0;startSize=0;swimlaneHead=0;swimlaneBody=0;fillColor=none;collapsible=0;dropTarget=0;points=[[0,0.5],[1,0.5]];portConstraint=eastwest;top=0;left=0;right=0;bottom=0;" parent="C-vyLk0tnHw3VtMMgP7b-23" vertex="1">
          <mxGeometry y="150" width="250" height="30" as="geometry" />
        </mxCell>
        <mxCell id="4wsXO7ddn7WPQWlqq9JL-51" value="" style="shape=partialRectangle;connectable=0;fillColor=none;top=0;left=0;bottom=0;right=0;editable=1;overflow=hidden;" parent="4wsXO7ddn7WPQWlqq9JL-50" vertex="1">
          <mxGeometry width="30" height="30" as="geometry">
            <mxRectangle width="30" height="30" as="alternateBounds" />
          </mxGeometry>
        </mxCell>
        <mxCell id="4wsXO7ddn7WPQWlqq9JL-52" value="Description: Varchar(1000)" style="shape=partialRectangle;connectable=0;fillColor=none;top=0;left=0;bottom=0;right=0;align=left;spacingLeft=6;overflow=hidden;" parent="4wsXO7ddn7WPQWlqq9JL-50" vertex="1">
          <mxGeometry x="30" width="220" height="30" as="geometry">
            <mxRectangle width="220" height="30" as="alternateBounds" />
          </mxGeometry>
        </mxCell>
        <mxCell id="CWx529bwUQvuQtr-9syW-177" value="" style="shape=tableRow;horizontal=0;startSize=0;swimlaneHead=0;swimlaneBody=0;fillColor=none;collapsible=0;dropTarget=0;points=[[0,0.5],[1,0.5]];portConstraint=eastwest;top=0;left=0;right=0;bottom=0;" parent="C-vyLk0tnHw3VtMMgP7b-23" vertex="1">
          <mxGeometry y="180" width="250" height="30" as="geometry" />
        </mxCell>
        <mxCell id="CWx529bwUQvuQtr-9syW-178" value="" style="shape=partialRectangle;connectable=0;fillColor=none;top=0;left=0;bottom=0;right=0;editable=1;overflow=hidden;" parent="CWx529bwUQvuQtr-9syW-177" vertex="1">
          <mxGeometry width="30" height="30" as="geometry">
            <mxRectangle width="30" height="30" as="alternateBounds" />
          </mxGeometry>
        </mxCell>
        <mxCell id="CWx529bwUQvuQtr-9syW-179" value="Map: Varchar(1000)" style="shape=partialRectangle;connectable=0;fillColor=none;top=0;left=0;bottom=0;right=0;align=left;spacingLeft=6;overflow=hidden;" parent="CWx529bwUQvuQtr-9syW-177" vertex="1">
          <mxGeometry x="30" width="220" height="30" as="geometry">
            <mxRectangle width="220" height="30" as="alternateBounds" />
          </mxGeometry>
        </mxCell>
        <mxCell id="SawxGzOYsBgWx7QVywLR-7" value="" style="shape=tableRow;horizontal=0;startSize=0;swimlaneHead=0;swimlaneBody=0;fillColor=none;collapsible=0;dropTarget=0;points=[[0,0.5],[1,0.5]];portConstraint=eastwest;top=0;left=0;right=0;bottom=0;" parent="C-vyLk0tnHw3VtMMgP7b-23" vertex="1">
          <mxGeometry y="210" width="250" height="30" as="geometry" />
        </mxCell>
        <mxCell id="SawxGzOYsBgWx7QVywLR-8" value="" style="shape=partialRectangle;connectable=0;fillColor=none;top=0;left=0;bottom=0;right=0;editable=1;overflow=hidden;" parent="SawxGzOYsBgWx7QVywLR-7" vertex="1">
          <mxGeometry width="30" height="30" as="geometry">
            <mxRectangle width="30" height="30" as="alternateBounds" />
          </mxGeometry>
        </mxCell>
        <mxCell id="SawxGzOYsBgWx7QVywLR-9" value="GameAuthorEmail: Varchar(50)" style="shape=partialRectangle;connectable=0;fillColor=none;top=0;left=0;bottom=0;right=0;align=left;spacingLeft=6;overflow=hidden;" parent="SawxGzOYsBgWx7QVywLR-7" vertex="1">
          <mxGeometry x="30" width="220" height="30" as="geometry">
            <mxRectangle width="220" height="30" as="alternateBounds" />
          </mxGeometry>
        </mxCell>
        <mxCell id="iE6_MgdGiCYA7PbVcZzT-1" value="" style="shape=tableRow;horizontal=0;startSize=0;swimlaneHead=0;swimlaneBody=0;fillColor=none;collapsible=0;dropTarget=0;points=[[0,0.5],[1,0.5]];portConstraint=eastwest;top=0;left=0;right=0;bottom=0;" parent="C-vyLk0tnHw3VtMMgP7b-23" vertex="1">
          <mxGeometry y="240" width="250" height="30" as="geometry" />
        </mxCell>
        <mxCell id="iE6_MgdGiCYA7PbVcZzT-2" value="" style="shape=partialRectangle;connectable=0;fillColor=none;top=0;left=0;bottom=0;right=0;editable=1;overflow=hidden;" parent="iE6_MgdGiCYA7PbVcZzT-1" vertex="1">
          <mxGeometry width="30" height="30" as="geometry">
            <mxRectangle width="30" height="30" as="alternateBounds" />
          </mxGeometry>
        </mxCell>
        <mxCell id="iE6_MgdGiCYA7PbVcZzT-3" value="CreationState: Varchar(50)" style="shape=partialRectangle;connectable=0;fillColor=none;top=0;left=0;bottom=0;right=0;align=left;spacingLeft=6;overflow=hidden;" parent="iE6_MgdGiCYA7PbVcZzT-1" vertex="1">
          <mxGeometry x="30" width="220" height="30" as="geometry">
            <mxRectangle width="220" height="30" as="alternateBounds" />
          </mxGeometry>
        </mxCell>
        <mxCell id="SawxGzOYsBgWx7QVywLR-4" value="" style="shape=tableRow;horizontal=0;startSize=0;swimlaneHead=0;swimlaneBody=0;fillColor=none;collapsible=0;dropTarget=0;points=[[0,0.5],[1,0.5]];portConstraint=eastwest;top=0;left=0;right=0;bottom=0;" parent="C-vyLk0tnHw3VtMMgP7b-23" vertex="1">
          <mxGeometry y="270" width="250" height="30" as="geometry" />
        </mxCell>
        <mxCell id="SawxGzOYsBgWx7QVywLR-5" value="" style="shape=partialRectangle;connectable=0;fillColor=none;top=0;left=0;bottom=0;right=0;editable=1;overflow=hidden;" parent="SawxGzOYsBgWx7QVywLR-4" vertex="1">
          <mxGeometry width="30" height="30" as="geometry">
            <mxRectangle width="30" height="30" as="alternateBounds" />
          </mxGeometry>
        </mxCell>
        <mxCell id="SawxGzOYsBgWx7QVywLR-6" value="Amendment: Varchar(2000)" style="shape=partialRectangle;connectable=0;fillColor=none;top=0;left=0;bottom=0;right=0;align=left;spacingLeft=6;overflow=hidden;" parent="SawxGzOYsBgWx7QVywLR-4" vertex="1">
          <mxGeometry x="30" width="220" height="30" as="geometry">
            <mxRectangle width="220" height="30" as="alternateBounds" />
          </mxGeometry>
        </mxCell>
        <mxCell id="0tc2kIL7PNWzNkHxcIpt-4" value="" style="shape=tableRow;horizontal=0;startSize=0;swimlaneHead=0;swimlaneBody=0;fillColor=none;collapsible=0;dropTarget=0;points=[[0,0.5],[1,0.5]];portConstraint=eastwest;top=0;left=0;right=0;bottom=0;" vertex="1" parent="C-vyLk0tnHw3VtMMgP7b-23">
          <mxGeometry y="300" width="250" height="30" as="geometry" />
        </mxCell>
        <mxCell id="0tc2kIL7PNWzNkHxcIpt-5" value="" style="shape=partialRectangle;connectable=0;fillColor=none;top=0;left=0;bottom=0;right=0;editable=1;overflow=hidden;" vertex="1" parent="0tc2kIL7PNWzNkHxcIpt-4">
          <mxGeometry width="30" height="30" as="geometry">
            <mxRectangle width="30" height="30" as="alternateBounds" />
          </mxGeometry>
        </mxCell>
        <mxCell id="0tc2kIL7PNWzNkHxcIpt-6" value="DateOfCreation: TimeStamp" style="shape=partialRectangle;connectable=0;fillColor=none;top=0;left=0;bottom=0;right=0;align=left;spacingLeft=6;overflow=hidden;" vertex="1" parent="0tc2kIL7PNWzNkHxcIpt-4">
          <mxGeometry x="30" width="220" height="30" as="geometry">
            <mxRectangle width="220" height="30" as="alternateBounds" />
          </mxGeometry>
        </mxCell>
        <mxCell id="0tc2kIL7PNWzNkHxcIpt-1" value="" style="shape=tableRow;horizontal=0;startSize=0;swimlaneHead=0;swimlaneBody=0;fillColor=none;collapsible=0;dropTarget=0;points=[[0,0.5],[1,0.5]];portConstraint=eastwest;top=0;left=0;right=0;bottom=0;" vertex="1" parent="C-vyLk0tnHw3VtMMgP7b-23">
          <mxGeometry y="330" width="250" height="30" as="geometry" />
        </mxCell>
        <mxCell id="0tc2kIL7PNWzNkHxcIpt-2" value="" style="shape=partialRectangle;connectable=0;fillColor=none;top=0;left=0;bottom=0;right=0;editable=1;overflow=hidden;" vertex="1" parent="0tc2kIL7PNWzNkHxcIpt-1">
          <mxGeometry width="30" height="30" as="geometry">
            <mxRectangle width="30" height="30" as="alternateBounds" />
          </mxGeometry>
        </mxCell>
        <mxCell id="0tc2kIL7PNWzNkHxcIpt-3" value="CorrectionNotes: Varchar(2000)" style="shape=partialRectangle;connectable=0;fillColor=none;top=0;left=0;bottom=0;right=0;align=left;spacingLeft=6;overflow=hidden;" vertex="1" parent="0tc2kIL7PNWzNkHxcIpt-1">
          <mxGeometry x="30" width="220" height="30" as="geometry">
            <mxRectangle width="220" height="30" as="alternateBounds" />
          </mxGeometry>
        </mxCell>
        <mxCell id="4wsXO7ddn7WPQWlqq9JL-53" value="" style="shape=tableRow;horizontal=0;startSize=0;swimlaneHead=0;swimlaneBody=0;fillColor=none;collapsible=0;dropTarget=0;points=[[0,0.5],[1,0.5]];portConstraint=eastwest;top=0;left=0;right=0;bottom=0;" parent="C-vyLk0tnHw3VtMMgP7b-23" vertex="1">
          <mxGeometry y="360" width="250" height="30" as="geometry" />
        </mxCell>
        <mxCell id="4wsXO7ddn7WPQWlqq9JL-54" value="" style="shape=partialRectangle;connectable=0;fillColor=none;top=0;left=0;bottom=0;right=0;editable=1;overflow=hidden;" parent="4wsXO7ddn7WPQWlqq9JL-53" vertex="1">
          <mxGeometry width="30" height="30" as="geometry">
            <mxRectangle width="30" height="30" as="alternateBounds" />
          </mxGeometry>
        </mxCell>
        <mxCell id="4wsXO7ddn7WPQWlqq9JL-55" value="Scenario: Varchar(1000)" style="shape=partialRectangle;connectable=0;fillColor=none;top=0;left=0;bottom=0;right=0;align=left;spacingLeft=6;overflow=hidden;" parent="4wsXO7ddn7WPQWlqq9JL-53" vertex="1">
          <mxGeometry x="30" width="220" height="30" as="geometry">
            <mxRectangle width="220" height="30" as="alternateBounds" />
          </mxGeometry>
        </mxCell>
        <mxCell id="CWx529bwUQvuQtr-9syW-5" value="Places" style="shape=table;startSize=30;container=1;collapsible=1;childLayout=tableLayout;fixedRows=1;rowLines=0;fontStyle=1;align=center;resizeLast=1;html=1;" parent="1" vertex="1">
          <mxGeometry x="294" y="-125" width="180" height="150" as="geometry" />
        </mxCell>
        <mxCell id="CWx529bwUQvuQtr-9syW-6" value="" style="shape=tableRow;horizontal=0;startSize=0;swimlaneHead=0;swimlaneBody=0;fillColor=none;collapsible=0;dropTarget=0;points=[[0,0.5],[1,0.5]];portConstraint=eastwest;top=0;left=0;right=0;bottom=1;" parent="CWx529bwUQvuQtr-9syW-5" vertex="1">
          <mxGeometry y="30" width="180" height="30" as="geometry" />
        </mxCell>
        <mxCell id="CWx529bwUQvuQtr-9syW-7" value="PK" style="shape=partialRectangle;connectable=0;fillColor=none;top=0;left=0;bottom=0;right=0;fontStyle=1;overflow=hidden;whiteSpace=wrap;html=1;" parent="CWx529bwUQvuQtr-9syW-6" vertex="1">
          <mxGeometry width="30" height="30" as="geometry">
            <mxRectangle width="30" height="30" as="alternateBounds" />
          </mxGeometry>
        </mxCell>
        <mxCell id="CWx529bwUQvuQtr-9syW-8" value="PlaceId: UUID" style="shape=partialRectangle;connectable=0;fillColor=none;top=0;left=0;bottom=0;right=0;align=left;spacingLeft=6;fontStyle=5;overflow=hidden;whiteSpace=wrap;html=1;" parent="CWx529bwUQvuQtr-9syW-6" vertex="1">
          <mxGeometry x="30" width="150" height="30" as="geometry">
            <mxRectangle width="150" height="30" as="alternateBounds" />
          </mxGeometry>
        </mxCell>
        <mxCell id="CWx529bwUQvuQtr-9syW-9" value="" style="shape=tableRow;horizontal=0;startSize=0;swimlaneHead=0;swimlaneBody=0;fillColor=none;collapsible=0;dropTarget=0;points=[[0,0.5],[1,0.5]];portConstraint=eastwest;top=0;left=0;right=0;bottom=0;" parent="CWx529bwUQvuQtr-9syW-5" vertex="1">
          <mxGeometry y="60" width="180" height="30" as="geometry" />
        </mxCell>
        <mxCell id="CWx529bwUQvuQtr-9syW-10" value="" style="shape=partialRectangle;connectable=0;fillColor=none;top=0;left=0;bottom=0;right=0;editable=1;overflow=hidden;whiteSpace=wrap;html=1;" parent="CWx529bwUQvuQtr-9syW-9" vertex="1">
          <mxGeometry width="30" height="30" as="geometry">
            <mxRectangle width="30" height="30" as="alternateBounds" />
          </mxGeometry>
        </mxCell>
        <mxCell id="CWx529bwUQvuQtr-9syW-11" value="Address:Varchar(250)" style="shape=partialRectangle;connectable=0;fillColor=none;top=0;left=0;bottom=0;right=0;align=left;spacingLeft=6;overflow=hidden;whiteSpace=wrap;html=1;" parent="CWx529bwUQvuQtr-9syW-9" vertex="1">
          <mxGeometry x="30" width="150" height="30" as="geometry">
            <mxRectangle width="150" height="30" as="alternateBounds" />
          </mxGeometry>
        </mxCell>
        <mxCell id="CWx529bwUQvuQtr-9syW-158" value="" style="shape=tableRow;horizontal=0;startSize=0;swimlaneHead=0;swimlaneBody=0;fillColor=none;collapsible=0;dropTarget=0;points=[[0,0.5],[1,0.5]];portConstraint=eastwest;top=0;left=0;right=0;bottom=0;" parent="CWx529bwUQvuQtr-9syW-5" vertex="1">
          <mxGeometry y="90" width="180" height="30" as="geometry" />
        </mxCell>
        <mxCell id="CWx529bwUQvuQtr-9syW-159" value="" style="shape=partialRectangle;connectable=0;fillColor=none;top=0;left=0;bottom=0;right=0;editable=1;overflow=hidden;" parent="CWx529bwUQvuQtr-9syW-158" vertex="1">
          <mxGeometry width="30" height="30" as="geometry">
            <mxRectangle width="30" height="30" as="alternateBounds" />
          </mxGeometry>
        </mxCell>
        <mxCell id="CWx529bwUQvuQtr-9syW-160" value="Details:Varchar(1000)" style="shape=partialRectangle;connectable=0;fillColor=none;top=0;left=0;bottom=0;right=0;align=left;spacingLeft=6;overflow=hidden;" parent="CWx529bwUQvuQtr-9syW-158" vertex="1">
          <mxGeometry x="30" width="150" height="30" as="geometry">
            <mxRectangle width="150" height="30" as="alternateBounds" />
          </mxGeometry>
        </mxCell>
        <mxCell id="A7rGnYR7MRQ6kIk2kGhN-2" style="shape=tableRow;horizontal=0;startSize=0;swimlaneHead=0;swimlaneBody=0;fillColor=none;collapsible=0;dropTarget=0;points=[[0,0.5],[1,0.5]];portConstraint=eastwest;top=0;left=0;right=0;bottom=0;" parent="CWx529bwUQvuQtr-9syW-5" vertex="1">
          <mxGeometry y="120" width="180" height="30" as="geometry" />
        </mxCell>
        <mxCell id="A7rGnYR7MRQ6kIk2kGhN-3" style="shape=partialRectangle;connectable=0;fillColor=none;top=0;left=0;bottom=0;right=0;editable=1;overflow=hidden;" parent="A7rGnYR7MRQ6kIk2kGhN-2" vertex="1">
          <mxGeometry width="30" height="30" as="geometry">
            <mxRectangle width="30" height="30" as="alternateBounds" />
          </mxGeometry>
        </mxCell>
        <mxCell id="A7rGnYR7MRQ6kIk2kGhN-4" value="PricePerHour: Money" style="shape=partialRectangle;connectable=0;fillColor=none;top=0;left=0;bottom=0;right=0;align=left;spacingLeft=6;overflow=hidden;" parent="A7rGnYR7MRQ6kIk2kGhN-2" vertex="1">
          <mxGeometry x="30" width="150" height="30" as="geometry">
            <mxRectangle width="150" height="30" as="alternateBounds" />
          </mxGeometry>
        </mxCell>
        <mxCell id="CWx529bwUQvuQtr-9syW-29" value="Users" style="shape=table;startSize=30;container=1;collapsible=1;childLayout=tableLayout;fixedRows=1;rowLines=0;fontStyle=1;align=center;resizeLast=1;html=1;" parent="1" vertex="1">
          <mxGeometry x="908" y="482" width="180" height="150" as="geometry" />
        </mxCell>
        <mxCell id="CWx529bwUQvuQtr-9syW-30" value="" style="shape=tableRow;horizontal=0;startSize=0;swimlaneHead=0;swimlaneBody=0;fillColor=none;collapsible=0;dropTarget=0;points=[[0,0.5],[1,0.5]];portConstraint=eastwest;top=0;left=0;right=0;bottom=1;" parent="CWx529bwUQvuQtr-9syW-29" vertex="1">
          <mxGeometry y="30" width="180" height="30" as="geometry" />
        </mxCell>
        <mxCell id="CWx529bwUQvuQtr-9syW-31" value="PK" style="shape=partialRectangle;connectable=0;fillColor=none;top=0;left=0;bottom=0;right=0;fontStyle=1;overflow=hidden;whiteSpace=wrap;html=1;" parent="CWx529bwUQvuQtr-9syW-30" vertex="1">
          <mxGeometry width="30" height="30" as="geometry">
            <mxRectangle width="30" height="30" as="alternateBounds" />
          </mxGeometry>
        </mxCell>
        <mxCell id="CWx529bwUQvuQtr-9syW-32" value="UserId: UUID" style="shape=partialRectangle;connectable=0;fillColor=none;top=0;left=0;bottom=0;right=0;align=left;spacingLeft=6;fontStyle=5;overflow=hidden;whiteSpace=wrap;html=1;" parent="CWx529bwUQvuQtr-9syW-30" vertex="1">
          <mxGeometry x="30" width="150" height="30" as="geometry">
            <mxRectangle width="150" height="30" as="alternateBounds" />
          </mxGeometry>
        </mxCell>
        <mxCell id="CWx529bwUQvuQtr-9syW-33" value="" style="shape=tableRow;horizontal=0;startSize=0;swimlaneHead=0;swimlaneBody=0;fillColor=none;collapsible=0;dropTarget=0;points=[[0,0.5],[1,0.5]];portConstraint=eastwest;top=0;left=0;right=0;bottom=0;" parent="CWx529bwUQvuQtr-9syW-29" vertex="1">
          <mxGeometry y="60" width="180" height="30" as="geometry" />
        </mxCell>
        <mxCell id="CWx529bwUQvuQtr-9syW-34" value="" style="shape=partialRectangle;connectable=0;fillColor=none;top=0;left=0;bottom=0;right=0;editable=1;overflow=hidden;whiteSpace=wrap;html=1;" parent="CWx529bwUQvuQtr-9syW-33" vertex="1">
          <mxGeometry width="30" height="30" as="geometry">
            <mxRectangle width="30" height="30" as="alternateBounds" />
          </mxGeometry>
        </mxCell>
        <mxCell id="CWx529bwUQvuQtr-9syW-35" value="Name: Varchar(50)" style="shape=partialRectangle;connectable=0;fillColor=none;top=0;left=0;bottom=0;right=0;align=left;spacingLeft=6;overflow=hidden;whiteSpace=wrap;html=1;" parent="CWx529bwUQvuQtr-9syW-33" vertex="1">
          <mxGeometry x="30" width="150" height="30" as="geometry">
            <mxRectangle width="150" height="30" as="alternateBounds" />
          </mxGeometry>
        </mxCell>
        <mxCell id="CWx529bwUQvuQtr-9syW-36" value="" style="shape=tableRow;horizontal=0;startSize=0;swimlaneHead=0;swimlaneBody=0;fillColor=none;collapsible=0;dropTarget=0;points=[[0,0.5],[1,0.5]];portConstraint=eastwest;top=0;left=0;right=0;bottom=0;" parent="CWx529bwUQvuQtr-9syW-29" vertex="1">
          <mxGeometry y="90" width="180" height="30" as="geometry" />
        </mxCell>
        <mxCell id="CWx529bwUQvuQtr-9syW-37" value="" style="shape=partialRectangle;connectable=0;fillColor=none;top=0;left=0;bottom=0;right=0;editable=1;overflow=hidden;whiteSpace=wrap;html=1;" parent="CWx529bwUQvuQtr-9syW-36" vertex="1">
          <mxGeometry width="30" height="30" as="geometry">
            <mxRectangle width="30" height="30" as="alternateBounds" />
          </mxGeometry>
        </mxCell>
        <mxCell id="CWx529bwUQvuQtr-9syW-38" value="Email: Varchar(50)" style="shape=partialRectangle;connectable=0;fillColor=none;top=0;left=0;bottom=0;right=0;align=left;spacingLeft=6;overflow=hidden;whiteSpace=wrap;html=1;" parent="CWx529bwUQvuQtr-9syW-36" vertex="1">
          <mxGeometry x="30" width="150" height="30" as="geometry">
            <mxRectangle width="150" height="30" as="alternateBounds" />
          </mxGeometry>
        </mxCell>
        <mxCell id="CWx529bwUQvuQtr-9syW-167" value="" style="shape=tableRow;horizontal=0;startSize=0;swimlaneHead=0;swimlaneBody=0;fillColor=none;collapsible=0;dropTarget=0;points=[[0,0.5],[1,0.5]];portConstraint=eastwest;top=0;left=0;right=0;bottom=0;" parent="CWx529bwUQvuQtr-9syW-29" vertex="1">
          <mxGeometry y="120" width="180" height="30" as="geometry" />
        </mxCell>
        <mxCell id="CWx529bwUQvuQtr-9syW-168" value="" style="shape=partialRectangle;connectable=0;fillColor=none;top=0;left=0;bottom=0;right=0;editable=1;overflow=hidden;" parent="CWx529bwUQvuQtr-9syW-167" vertex="1">
          <mxGeometry width="30" height="30" as="geometry">
            <mxRectangle width="30" height="30" as="alternateBounds" />
          </mxGeometry>
        </mxCell>
        <mxCell id="CWx529bwUQvuQtr-9syW-169" value="Avatar: Varchar(50)" style="shape=partialRectangle;connectable=0;fillColor=none;top=0;left=0;bottom=0;right=0;align=left;spacingLeft=6;overflow=hidden;" parent="CWx529bwUQvuQtr-9syW-167" vertex="1">
          <mxGeometry x="30" width="150" height="30" as="geometry">
            <mxRectangle width="150" height="30" as="alternateBounds" />
          </mxGeometry>
        </mxCell>
        <mxCell id="CWx529bwUQvuQtr-9syW-68" value="GameRoles" style="shape=table;startSize=30;container=1;collapsible=1;childLayout=tableLayout;fixedRows=1;rowLines=0;fontStyle=1;align=center;resizeLast=1;html=1;" parent="1" vertex="1">
          <mxGeometry x="-248" y="132" width="205.97569274902344" height="151.3194580078125" as="geometry" />
        </mxCell>
        <mxCell id="CWx529bwUQvuQtr-9syW-69" value="" style="shape=tableRow;horizontal=0;startSize=0;swimlaneHead=0;swimlaneBody=0;fillColor=none;collapsible=0;dropTarget=0;points=[[0,0.5],[1,0.5]];portConstraint=eastwest;top=0;left=0;right=0;bottom=1;" parent="CWx529bwUQvuQtr-9syW-68" vertex="1">
          <mxGeometry y="30" width="205.97569274902344" height="30" as="geometry" />
        </mxCell>
        <mxCell id="CWx529bwUQvuQtr-9syW-70" value="PK" style="shape=partialRectangle;connectable=0;fillColor=none;top=0;left=0;bottom=0;right=0;fontStyle=1;overflow=hidden;whiteSpace=wrap;html=1;" parent="CWx529bwUQvuQtr-9syW-69" vertex="1">
          <mxGeometry width="30" height="30" as="geometry">
            <mxRectangle width="30" height="30" as="alternateBounds" />
          </mxGeometry>
        </mxCell>
        <mxCell id="CWx529bwUQvuQtr-9syW-71" value="GameRoleId:UUID" style="shape=partialRectangle;connectable=0;fillColor=none;top=0;left=0;bottom=0;right=0;align=left;spacingLeft=6;fontStyle=5;overflow=hidden;whiteSpace=wrap;html=1;" parent="CWx529bwUQvuQtr-9syW-69" vertex="1">
          <mxGeometry x="30" width="175.97569274902344" height="30" as="geometry">
            <mxRectangle width="175.97569274902344" height="30" as="alternateBounds" />
          </mxGeometry>
        </mxCell>
        <mxCell id="CWx529bwUQvuQtr-9syW-72" value="" style="shape=tableRow;horizontal=0;startSize=0;swimlaneHead=0;swimlaneBody=0;fillColor=none;collapsible=0;dropTarget=0;points=[[0,0.5],[1,0.5]];portConstraint=eastwest;top=0;left=0;right=0;bottom=0;" parent="CWx529bwUQvuQtr-9syW-68" vertex="1">
          <mxGeometry y="60" width="205.97569274902344" height="31" as="geometry" />
        </mxCell>
        <mxCell id="CWx529bwUQvuQtr-9syW-73" value="FK" style="shape=partialRectangle;connectable=0;fillColor=none;top=0;left=0;bottom=0;right=0;editable=1;overflow=hidden;whiteSpace=wrap;html=1;" parent="CWx529bwUQvuQtr-9syW-72" vertex="1">
          <mxGeometry width="30" height="31" as="geometry">
            <mxRectangle width="30" height="31" as="alternateBounds" />
          </mxGeometry>
        </mxCell>
        <mxCell id="CWx529bwUQvuQtr-9syW-74" value="GameId" style="shape=partialRectangle;connectable=0;fillColor=none;top=0;left=0;bottom=0;right=0;align=left;spacingLeft=6;overflow=hidden;whiteSpace=wrap;html=1;" parent="CWx529bwUQvuQtr-9syW-72" vertex="1">
          <mxGeometry x="30" width="175.97569274902344" height="31" as="geometry">
            <mxRectangle width="175.97569274902344" height="31" as="alternateBounds" />
          </mxGeometry>
        </mxCell>
        <mxCell id="CWx529bwUQvuQtr-9syW-75" value="" style="shape=tableRow;horizontal=0;startSize=0;swimlaneHead=0;swimlaneBody=0;fillColor=none;collapsible=0;dropTarget=0;points=[[0,0.5],[1,0.5]];portConstraint=eastwest;top=0;left=0;right=0;bottom=0;" parent="CWx529bwUQvuQtr-9syW-68" vertex="1">
          <mxGeometry y="91" width="205.97569274902344" height="30" as="geometry" />
        </mxCell>
        <mxCell id="CWx529bwUQvuQtr-9syW-76" value="" style="shape=partialRectangle;connectable=0;fillColor=none;top=0;left=0;bottom=0;right=0;editable=1;overflow=hidden;whiteSpace=wrap;html=1;" parent="CWx529bwUQvuQtr-9syW-75" vertex="1">
          <mxGeometry width="30" height="30" as="geometry">
            <mxRectangle width="30" height="30" as="alternateBounds" />
          </mxGeometry>
        </mxCell>
        <mxCell id="CWx529bwUQvuQtr-9syW-77" value="RoleName: Varchar(50)" style="shape=partialRectangle;connectable=0;fillColor=none;top=0;left=0;bottom=0;right=0;align=left;spacingLeft=6;overflow=hidden;whiteSpace=wrap;html=1;" parent="CWx529bwUQvuQtr-9syW-75" vertex="1">
          <mxGeometry x="30" width="175.97569274902344" height="30" as="geometry">
            <mxRectangle width="175.97569274902344" height="30" as="alternateBounds" />
          </mxGeometry>
        </mxCell>
        <mxCell id="CWx529bwUQvuQtr-9syW-161" value="" style="shape=tableRow;horizontal=0;startSize=0;swimlaneHead=0;swimlaneBody=0;fillColor=none;collapsible=0;dropTarget=0;points=[[0,0.5],[1,0.5]];portConstraint=eastwest;top=0;left=0;right=0;bottom=0;" parent="CWx529bwUQvuQtr-9syW-68" vertex="1">
          <mxGeometry y="121" width="205.97569274902344" height="30" as="geometry" />
        </mxCell>
        <mxCell id="CWx529bwUQvuQtr-9syW-162" value="" style="shape=partialRectangle;connectable=0;fillColor=none;top=0;left=0;bottom=0;right=0;editable=1;overflow=hidden;" parent="CWx529bwUQvuQtr-9syW-161" vertex="1">
          <mxGeometry width="30" height="30" as="geometry">
            <mxRectangle width="30" height="30" as="alternateBounds" />
          </mxGeometry>
        </mxCell>
        <mxCell id="CWx529bwUQvuQtr-9syW-163" value="RoleDescription: Varchar(1000)" style="shape=partialRectangle;connectable=0;fillColor=none;top=0;left=0;bottom=0;right=0;align=left;spacingLeft=6;overflow=hidden;" parent="CWx529bwUQvuQtr-9syW-161" vertex="1">
          <mxGeometry x="30" width="175.97569274902344" height="30" as="geometry">
            <mxRectangle width="175.97569274902344" height="30" as="alternateBounds" />
          </mxGeometry>
        </mxCell>
        <mxCell id="CWx529bwUQvuQtr-9syW-81" value="Players" style="shape=table;startSize=30;container=1;collapsible=1;childLayout=tableLayout;fixedRows=1;rowLines=0;fontStyle=1;align=center;resizeLast=1;html=1;" parent="1" vertex="1">
          <mxGeometry x="419.86" y="727" width="180" height="210" as="geometry" />
        </mxCell>
        <mxCell id="CWx529bwUQvuQtr-9syW-82" value="" style="shape=tableRow;horizontal=0;startSize=0;swimlaneHead=0;swimlaneBody=0;fillColor=none;collapsible=0;dropTarget=0;points=[[0,0.5],[1,0.5]];portConstraint=eastwest;top=0;left=0;right=0;bottom=1;" parent="CWx529bwUQvuQtr-9syW-81" vertex="1">
          <mxGeometry y="30" width="180" height="30" as="geometry" />
        </mxCell>
        <mxCell id="CWx529bwUQvuQtr-9syW-83" value="PK" style="shape=partialRectangle;connectable=0;fillColor=none;top=0;left=0;bottom=0;right=0;fontStyle=1;overflow=hidden;whiteSpace=wrap;html=1;" parent="CWx529bwUQvuQtr-9syW-82" vertex="1">
          <mxGeometry width="30" height="30" as="geometry">
            <mxRectangle width="30" height="30" as="alternateBounds" />
          </mxGeometry>
        </mxCell>
        <mxCell id="CWx529bwUQvuQtr-9syW-84" value="PlayerId: UUID" style="shape=partialRectangle;connectable=0;fillColor=none;top=0;left=0;bottom=0;right=0;align=left;spacingLeft=6;fontStyle=5;overflow=hidden;whiteSpace=wrap;html=1;" parent="CWx529bwUQvuQtr-9syW-82" vertex="1">
          <mxGeometry x="30" width="150" height="30" as="geometry">
            <mxRectangle width="150" height="30" as="alternateBounds" />
          </mxGeometry>
        </mxCell>
        <mxCell id="CWx529bwUQvuQtr-9syW-85" value="" style="shape=tableRow;horizontal=0;startSize=0;swimlaneHead=0;swimlaneBody=0;fillColor=none;collapsible=0;dropTarget=0;points=[[0,0.5],[1,0.5]];portConstraint=eastwest;top=0;left=0;right=0;bottom=0;" parent="CWx529bwUQvuQtr-9syW-81" vertex="1">
          <mxGeometry y="60" width="180" height="30" as="geometry" />
        </mxCell>
        <mxCell id="CWx529bwUQvuQtr-9syW-86" value="FK" style="shape=partialRectangle;connectable=0;fillColor=none;top=0;left=0;bottom=0;right=0;editable=1;overflow=hidden;whiteSpace=wrap;html=1;" parent="CWx529bwUQvuQtr-9syW-85" vertex="1">
          <mxGeometry width="30" height="30" as="geometry">
            <mxRectangle width="30" height="30" as="alternateBounds" />
          </mxGeometry>
        </mxCell>
        <mxCell id="CWx529bwUQvuQtr-9syW-87" value="UserEmaiil" style="shape=partialRectangle;connectable=0;fillColor=none;top=0;left=0;bottom=0;right=0;align=left;spacingLeft=6;overflow=hidden;whiteSpace=wrap;html=1;" parent="CWx529bwUQvuQtr-9syW-85" vertex="1">
          <mxGeometry x="30" width="150" height="30" as="geometry">
            <mxRectangle width="150" height="30" as="alternateBounds" />
          </mxGeometry>
        </mxCell>
        <mxCell id="CWx529bwUQvuQtr-9syW-88" value="" style="shape=tableRow;horizontal=0;startSize=0;swimlaneHead=0;swimlaneBody=0;fillColor=none;collapsible=0;dropTarget=0;points=[[0,0.5],[1,0.5]];portConstraint=eastwest;top=0;left=0;right=0;bottom=0;" parent="CWx529bwUQvuQtr-9syW-81" vertex="1">
          <mxGeometry y="90" width="180" height="30" as="geometry" />
        </mxCell>
        <mxCell id="CWx529bwUQvuQtr-9syW-89" value="FK" style="shape=partialRectangle;connectable=0;fillColor=none;top=0;left=0;bottom=0;right=0;editable=1;overflow=hidden;whiteSpace=wrap;html=1;" parent="CWx529bwUQvuQtr-9syW-88" vertex="1">
          <mxGeometry width="30" height="30" as="geometry">
            <mxRectangle width="30" height="30" as="alternateBounds" />
          </mxGeometry>
        </mxCell>
        <mxCell id="CWx529bwUQvuQtr-9syW-90" value="EventId" style="shape=partialRectangle;connectable=0;fillColor=none;top=0;left=0;bottom=0;right=0;align=left;spacingLeft=6;overflow=hidden;whiteSpace=wrap;html=1;" parent="CWx529bwUQvuQtr-9syW-88" vertex="1">
          <mxGeometry x="30" width="150" height="30" as="geometry">
            <mxRectangle width="150" height="30" as="alternateBounds" />
          </mxGeometry>
        </mxCell>
        <mxCell id="CWx529bwUQvuQtr-9syW-91" value="" style="shape=tableRow;horizontal=0;startSize=0;swimlaneHead=0;swimlaneBody=0;fillColor=none;collapsible=0;dropTarget=0;points=[[0,0.5],[1,0.5]];portConstraint=eastwest;top=0;left=0;right=0;bottom=0;" parent="CWx529bwUQvuQtr-9syW-81" vertex="1">
          <mxGeometry y="120" width="180" height="30" as="geometry" />
        </mxCell>
        <mxCell id="CWx529bwUQvuQtr-9syW-92" value="FK" style="shape=partialRectangle;connectable=0;fillColor=none;top=0;left=0;bottom=0;right=0;editable=1;overflow=hidden;whiteSpace=wrap;html=1;" parent="CWx529bwUQvuQtr-9syW-91" vertex="1">
          <mxGeometry width="30" height="30" as="geometry">
            <mxRectangle width="30" height="30" as="alternateBounds" />
          </mxGeometry>
        </mxCell>
        <mxCell id="CWx529bwUQvuQtr-9syW-93" value="GameRoleId" style="shape=partialRectangle;connectable=0;fillColor=none;top=0;left=0;bottom=0;right=0;align=left;spacingLeft=6;overflow=hidden;whiteSpace=wrap;html=1;" parent="CWx529bwUQvuQtr-9syW-91" vertex="1">
          <mxGeometry x="30" width="150" height="30" as="geometry">
            <mxRectangle width="150" height="30" as="alternateBounds" />
          </mxGeometry>
        </mxCell>
        <mxCell id="CWx529bwUQvuQtr-9syW-174" value="" style="shape=tableRow;horizontal=0;startSize=0;swimlaneHead=0;swimlaneBody=0;fillColor=none;collapsible=0;dropTarget=0;points=[[0,0.5],[1,0.5]];portConstraint=eastwest;top=0;left=0;right=0;bottom=0;" parent="CWx529bwUQvuQtr-9syW-81" vertex="1">
          <mxGeometry y="150" width="180" height="30" as="geometry" />
        </mxCell>
        <mxCell id="CWx529bwUQvuQtr-9syW-175" value="" style="shape=partialRectangle;connectable=0;fillColor=none;top=0;left=0;bottom=0;right=0;editable=1;overflow=hidden;" parent="CWx529bwUQvuQtr-9syW-174" vertex="1">
          <mxGeometry width="30" height="30" as="geometry">
            <mxRectangle width="30" height="30" as="alternateBounds" />
          </mxGeometry>
        </mxCell>
        <mxCell id="CWx529bwUQvuQtr-9syW-176" value="Coordinates: Point" style="shape=partialRectangle;connectable=0;fillColor=none;top=0;left=0;bottom=0;right=0;align=left;spacingLeft=6;overflow=hidden;" parent="CWx529bwUQvuQtr-9syW-174" vertex="1">
          <mxGeometry x="30" width="150" height="30" as="geometry">
            <mxRectangle width="150" height="30" as="alternateBounds" />
          </mxGeometry>
        </mxCell>
        <mxCell id="CWx529bwUQvuQtr-9syW-94" value="" style="shape=tableRow;horizontal=0;startSize=0;swimlaneHead=0;swimlaneBody=0;fillColor=none;collapsible=0;dropTarget=0;points=[[0,0.5],[1,0.5]];portConstraint=eastwest;top=0;left=0;right=0;bottom=0;" parent="CWx529bwUQvuQtr-9syW-81" vertex="1">
          <mxGeometry y="180" width="180" height="30" as="geometry" />
        </mxCell>
        <mxCell id="CWx529bwUQvuQtr-9syW-95" value="" style="shape=partialRectangle;connectable=0;fillColor=none;top=0;left=0;bottom=0;right=0;editable=1;overflow=hidden;" parent="CWx529bwUQvuQtr-9syW-94" vertex="1">
          <mxGeometry width="30" height="30" as="geometry">
            <mxRectangle width="30" height="30" as="alternateBounds" />
          </mxGeometry>
        </mxCell>
        <mxCell id="CWx529bwUQvuQtr-9syW-96" value="Nick: Varchar(50)" style="shape=partialRectangle;connectable=0;fillColor=none;top=0;left=0;bottom=0;right=0;align=left;spacingLeft=6;overflow=hidden;" parent="CWx529bwUQvuQtr-9syW-94" vertex="1">
          <mxGeometry x="30" width="150" height="30" as="geometry">
            <mxRectangle width="150" height="30" as="alternateBounds" />
          </mxGeometry>
        </mxCell>
        <mxCell id="CWx529bwUQvuQtr-9syW-97" value="Items" style="shape=table;startSize=30;container=1;collapsible=1;childLayout=tableLayout;fixedRows=1;rowLines=0;fontStyle=1;align=center;resizeLast=1;html=1;" parent="1" vertex="1">
          <mxGeometry x="54" y="358" width="200.75" height="238" as="geometry" />
        </mxCell>
        <mxCell id="CWx529bwUQvuQtr-9syW-98" value="" style="shape=tableRow;horizontal=0;startSize=0;swimlaneHead=0;swimlaneBody=0;fillColor=none;collapsible=0;dropTarget=0;points=[[0,0.5],[1,0.5]];portConstraint=eastwest;top=0;left=0;right=0;bottom=1;" parent="CWx529bwUQvuQtr-9syW-97" vertex="1">
          <mxGeometry y="30" width="200.75" height="30" as="geometry" />
        </mxCell>
        <mxCell id="CWx529bwUQvuQtr-9syW-99" value="PK" style="shape=partialRectangle;connectable=0;fillColor=none;top=0;left=0;bottom=0;right=0;fontStyle=1;overflow=hidden;whiteSpace=wrap;html=1;" parent="CWx529bwUQvuQtr-9syW-98" vertex="1">
          <mxGeometry width="30" height="30" as="geometry">
            <mxRectangle width="30" height="30" as="alternateBounds" />
          </mxGeometry>
        </mxCell>
        <mxCell id="CWx529bwUQvuQtr-9syW-100" value="ItemId: UUID" style="shape=partialRectangle;connectable=0;fillColor=none;top=0;left=0;bottom=0;right=0;align=left;spacingLeft=6;fontStyle=5;overflow=hidden;whiteSpace=wrap;html=1;" parent="CWx529bwUQvuQtr-9syW-98" vertex="1">
          <mxGeometry x="30" width="170.75" height="30" as="geometry">
            <mxRectangle width="170.75" height="30" as="alternateBounds" />
          </mxGeometry>
        </mxCell>
        <mxCell id="CWx529bwUQvuQtr-9syW-101" value="" style="shape=tableRow;horizontal=0;startSize=0;swimlaneHead=0;swimlaneBody=0;fillColor=none;collapsible=0;dropTarget=0;points=[[0,0.5],[1,0.5]];portConstraint=eastwest;top=0;left=0;right=0;bottom=0;" parent="CWx529bwUQvuQtr-9syW-97" vertex="1">
          <mxGeometry y="60" width="200.75" height="30" as="geometry" />
        </mxCell>
        <mxCell id="CWx529bwUQvuQtr-9syW-102" value="" style="shape=partialRectangle;connectable=0;fillColor=none;top=0;left=0;bottom=0;right=0;editable=1;overflow=hidden;whiteSpace=wrap;html=1;" parent="CWx529bwUQvuQtr-9syW-101" vertex="1">
          <mxGeometry width="30" height="30" as="geometry">
            <mxRectangle width="30" height="30" as="alternateBounds" />
          </mxGeometry>
        </mxCell>
        <mxCell id="CWx529bwUQvuQtr-9syW-103" value="ItemName: Varchar(50)" style="shape=partialRectangle;connectable=0;fillColor=none;top=0;left=0;bottom=0;right=0;align=left;spacingLeft=6;overflow=hidden;whiteSpace=wrap;html=1;" parent="CWx529bwUQvuQtr-9syW-101" vertex="1">
          <mxGeometry x="30" width="170.75" height="30" as="geometry">
            <mxRectangle width="170.75" height="30" as="alternateBounds" />
          </mxGeometry>
        </mxCell>
        <mxCell id="CWx529bwUQvuQtr-9syW-104" value="" style="shape=tableRow;horizontal=0;startSize=0;swimlaneHead=0;swimlaneBody=0;fillColor=none;collapsible=0;dropTarget=0;points=[[0,0.5],[1,0.5]];portConstraint=eastwest;top=0;left=0;right=0;bottom=0;" parent="CWx529bwUQvuQtr-9syW-97" vertex="1">
          <mxGeometry y="90" width="200.75" height="30" as="geometry" />
        </mxCell>
        <mxCell id="CWx529bwUQvuQtr-9syW-105" value="FK" style="shape=partialRectangle;connectable=0;fillColor=none;top=0;left=0;bottom=0;right=0;editable=1;overflow=hidden;whiteSpace=wrap;html=1;" parent="CWx529bwUQvuQtr-9syW-104" vertex="1">
          <mxGeometry width="30" height="30" as="geometry">
            <mxRectangle width="30" height="30" as="alternateBounds" />
          </mxGeometry>
        </mxCell>
        <mxCell id="CWx529bwUQvuQtr-9syW-106" value="GameId" style="shape=partialRectangle;connectable=0;fillColor=none;top=0;left=0;bottom=0;right=0;align=left;spacingLeft=6;overflow=hidden;whiteSpace=wrap;html=1;" parent="CWx529bwUQvuQtr-9syW-104" vertex="1">
          <mxGeometry x="30" width="170.75" height="30" as="geometry">
            <mxRectangle width="170.75" height="30" as="alternateBounds" />
          </mxGeometry>
        </mxCell>
        <mxCell id="CWx529bwUQvuQtr-9syW-149" value="" style="shape=tableRow;horizontal=0;startSize=0;swimlaneHead=0;swimlaneBody=0;fillColor=none;collapsible=0;dropTarget=0;points=[[0,0.5],[1,0.5]];portConstraint=eastwest;top=0;left=0;right=0;bottom=0;" parent="CWx529bwUQvuQtr-9syW-97" vertex="1">
          <mxGeometry y="120" width="200.75" height="30" as="geometry" />
        </mxCell>
        <mxCell id="CWx529bwUQvuQtr-9syW-150" value="" style="shape=partialRectangle;connectable=0;fillColor=none;top=0;left=0;bottom=0;right=0;fontStyle=0;overflow=hidden;whiteSpace=wrap;html=1;" parent="CWx529bwUQvuQtr-9syW-149" vertex="1">
          <mxGeometry width="30" height="30" as="geometry">
            <mxRectangle width="30" height="30" as="alternateBounds" />
          </mxGeometry>
        </mxCell>
        <mxCell id="CWx529bwUQvuQtr-9syW-151" value="ItemDescription: Varchar(250)" style="shape=partialRectangle;connectable=0;fillColor=none;top=0;left=0;bottom=0;right=0;align=left;spacingLeft=6;fontStyle=0;overflow=hidden;whiteSpace=wrap;html=1;" parent="CWx529bwUQvuQtr-9syW-149" vertex="1">
          <mxGeometry x="30" width="170.75" height="30" as="geometry">
            <mxRectangle width="170.75" height="30" as="alternateBounds" />
          </mxGeometry>
        </mxCell>
        <mxCell id="CWx529bwUQvuQtr-9syW-155" value="" style="shape=tableRow;horizontal=0;startSize=0;swimlaneHead=0;swimlaneBody=0;fillColor=none;collapsible=0;dropTarget=0;points=[[0,0.5],[1,0.5]];portConstraint=eastwest;top=0;left=0;right=0;bottom=0;" parent="CWx529bwUQvuQtr-9syW-97" vertex="1">
          <mxGeometry y="150" width="200.75" height="30" as="geometry" />
        </mxCell>
        <mxCell id="CWx529bwUQvuQtr-9syW-156" value="" style="shape=partialRectangle;connectable=0;fillColor=none;top=0;left=0;bottom=0;right=0;editable=1;overflow=hidden;" parent="CWx529bwUQvuQtr-9syW-155" vertex="1">
          <mxGeometry width="30" height="30" as="geometry">
            <mxRectangle width="30" height="30" as="alternateBounds" />
          </mxGeometry>
        </mxCell>
        <mxCell id="CWx529bwUQvuQtr-9syW-157" value="Rarity: Varchar(50)" style="shape=partialRectangle;connectable=0;fillColor=none;top=0;left=0;bottom=0;right=0;align=left;spacingLeft=6;overflow=hidden;" parent="CWx529bwUQvuQtr-9syW-155" vertex="1">
          <mxGeometry x="30" width="170.75" height="30" as="geometry">
            <mxRectangle width="170.75" height="30" as="alternateBounds" />
          </mxGeometry>
        </mxCell>
        <mxCell id="CWx529bwUQvuQtr-9syW-170" value="" style="shape=tableRow;horizontal=0;startSize=0;swimlaneHead=0;swimlaneBody=0;fillColor=none;collapsible=0;dropTarget=0;points=[[0,0.5],[1,0.5]];portConstraint=eastwest;top=0;left=0;right=0;bottom=0;" parent="CWx529bwUQvuQtr-9syW-97" vertex="1">
          <mxGeometry y="180" width="200.75" height="30" as="geometry" />
        </mxCell>
        <mxCell id="CWx529bwUQvuQtr-9syW-171" value="" style="shape=partialRectangle;connectable=0;fillColor=none;top=0;left=0;bottom=0;right=0;editable=1;overflow=hidden;" parent="CWx529bwUQvuQtr-9syW-170" vertex="1">
          <mxGeometry width="30" height="30" as="geometry">
            <mxRectangle width="30" height="30" as="alternateBounds" />
          </mxGeometry>
        </mxCell>
        <mxCell id="CWx529bwUQvuQtr-9syW-172" value="ItemIcon:Varchar(150)" style="shape=partialRectangle;connectable=0;fillColor=none;top=0;left=0;bottom=0;right=0;align=left;spacingLeft=6;overflow=hidden;" parent="CWx529bwUQvuQtr-9syW-170" vertex="1">
          <mxGeometry x="30" width="170.75" height="30" as="geometry">
            <mxRectangle width="170.75" height="30" as="alternateBounds" />
          </mxGeometry>
        </mxCell>
        <mxCell id="CWx529bwUQvuQtr-9syW-152" value="" style="shape=tableRow;horizontal=0;startSize=0;swimlaneHead=0;swimlaneBody=0;fillColor=none;collapsible=0;dropTarget=0;points=[[0,0.5],[1,0.5]];portConstraint=eastwest;top=0;left=0;right=0;bottom=0;" parent="CWx529bwUQvuQtr-9syW-97" vertex="1">
          <mxGeometry y="210" width="200.75" height="28" as="geometry" />
        </mxCell>
        <mxCell id="CWx529bwUQvuQtr-9syW-153" value="" style="shape=partialRectangle;connectable=0;fillColor=none;top=0;left=0;bottom=0;right=0;editable=1;overflow=hidden;" parent="CWx529bwUQvuQtr-9syW-152" vertex="1">
          <mxGeometry width="30" height="28" as="geometry">
            <mxRectangle width="30" height="28" as="alternateBounds" />
          </mxGeometry>
        </mxCell>
        <mxCell id="CWx529bwUQvuQtr-9syW-154" value="Type: Varchar(50)" style="shape=partialRectangle;connectable=0;fillColor=none;top=0;left=0;bottom=0;right=0;align=left;spacingLeft=6;overflow=hidden;" parent="CWx529bwUQvuQtr-9syW-152" vertex="1">
          <mxGeometry x="30" width="170.75" height="28" as="geometry">
            <mxRectangle width="170.75" height="28" as="alternateBounds" />
          </mxGeometry>
        </mxCell>
        <mxCell id="CWx529bwUQvuQtr-9syW-110" value="UsersCredential" style="shape=table;startSize=30;container=1;collapsible=1;childLayout=tableLayout;fixedRows=1;rowLines=0;fontStyle=1;align=center;resizeLast=1;html=1;" parent="1" vertex="1">
          <mxGeometry x="904" y="682" width="209" height="120" as="geometry" />
        </mxCell>
        <mxCell id="CWx529bwUQvuQtr-9syW-111" value="" style="shape=tableRow;horizontal=0;startSize=0;swimlaneHead=0;swimlaneBody=0;fillColor=none;collapsible=0;dropTarget=0;points=[[0,0.5],[1,0.5]];portConstraint=eastwest;top=0;left=0;right=0;bottom=1;" parent="CWx529bwUQvuQtr-9syW-110" vertex="1">
          <mxGeometry y="30" width="209" height="30" as="geometry" />
        </mxCell>
        <mxCell id="CWx529bwUQvuQtr-9syW-112" value="PK" style="shape=partialRectangle;connectable=0;fillColor=none;top=0;left=0;bottom=0;right=0;fontStyle=1;overflow=hidden;whiteSpace=wrap;html=1;" parent="CWx529bwUQvuQtr-9syW-111" vertex="1">
          <mxGeometry width="30" height="30" as="geometry">
            <mxRectangle width="30" height="30" as="alternateBounds" />
          </mxGeometry>
        </mxCell>
        <mxCell id="CWx529bwUQvuQtr-9syW-113" value="UserCredentialId:UUID" style="shape=partialRectangle;connectable=0;fillColor=none;top=0;left=0;bottom=0;right=0;align=left;spacingLeft=6;fontStyle=5;overflow=hidden;whiteSpace=wrap;html=1;" parent="CWx529bwUQvuQtr-9syW-111" vertex="1">
          <mxGeometry x="30" width="179" height="30" as="geometry">
            <mxRectangle width="179" height="30" as="alternateBounds" />
          </mxGeometry>
        </mxCell>
        <mxCell id="CWx529bwUQvuQtr-9syW-114" value="" style="shape=tableRow;horizontal=0;startSize=0;swimlaneHead=0;swimlaneBody=0;fillColor=none;collapsible=0;dropTarget=0;points=[[0,0.5],[1,0.5]];portConstraint=eastwest;top=0;left=0;right=0;bottom=0;" parent="CWx529bwUQvuQtr-9syW-110" vertex="1">
          <mxGeometry y="60" width="209" height="30" as="geometry" />
        </mxCell>
        <mxCell id="CWx529bwUQvuQtr-9syW-115" value="FK" style="shape=partialRectangle;connectable=0;fillColor=none;top=0;left=0;bottom=0;right=0;editable=1;overflow=hidden;whiteSpace=wrap;html=1;" parent="CWx529bwUQvuQtr-9syW-114" vertex="1">
          <mxGeometry width="30" height="30" as="geometry">
            <mxRectangle width="30" height="30" as="alternateBounds" />
          </mxGeometry>
        </mxCell>
        <mxCell id="CWx529bwUQvuQtr-9syW-116" value="UserEmail" style="shape=partialRectangle;connectable=0;fillColor=none;top=0;left=0;bottom=0;right=0;align=left;spacingLeft=6;overflow=hidden;whiteSpace=wrap;html=1;" parent="CWx529bwUQvuQtr-9syW-114" vertex="1">
          <mxGeometry x="30" width="179" height="30" as="geometry">
            <mxRectangle width="179" height="30" as="alternateBounds" />
          </mxGeometry>
        </mxCell>
        <mxCell id="CWx529bwUQvuQtr-9syW-117" value="" style="shape=tableRow;horizontal=0;startSize=0;swimlaneHead=0;swimlaneBody=0;fillColor=none;collapsible=0;dropTarget=0;points=[[0,0.5],[1,0.5]];portConstraint=eastwest;top=0;left=0;right=0;bottom=0;" parent="CWx529bwUQvuQtr-9syW-110" vertex="1">
          <mxGeometry y="90" width="209" height="30" as="geometry" />
        </mxCell>
        <mxCell id="CWx529bwUQvuQtr-9syW-118" value="" style="shape=partialRectangle;connectable=0;fillColor=none;top=0;left=0;bottom=0;right=0;editable=1;overflow=hidden;whiteSpace=wrap;html=1;" parent="CWx529bwUQvuQtr-9syW-117" vertex="1">
          <mxGeometry width="30" height="30" as="geometry">
            <mxRectangle width="30" height="30" as="alternateBounds" />
          </mxGeometry>
        </mxCell>
        <mxCell id="CWx529bwUQvuQtr-9syW-119" value="Password: Varchar(50)" style="shape=partialRectangle;connectable=0;fillColor=none;top=0;left=0;bottom=0;right=0;align=left;spacingLeft=6;overflow=hidden;whiteSpace=wrap;html=1;" parent="CWx529bwUQvuQtr-9syW-117" vertex="1">
          <mxGeometry x="30" width="179" height="30" as="geometry">
            <mxRectangle width="179" height="30" as="alternateBounds" />
          </mxGeometry>
        </mxCell>
        <mxCell id="CWx529bwUQvuQtr-9syW-123" value="Payments" style="shape=table;startSize=30;container=1;collapsible=1;childLayout=tableLayout;fixedRows=1;rowLines=0;fontStyle=1;align=center;resizeLast=1;html=1;" parent="1" vertex="1">
          <mxGeometry x="937" y="143" width="197.1875" height="240" as="geometry" />
        </mxCell>
        <mxCell id="CWx529bwUQvuQtr-9syW-124" value="" style="shape=tableRow;horizontal=0;startSize=0;swimlaneHead=0;swimlaneBody=0;fillColor=none;collapsible=0;dropTarget=0;points=[[0,0.5],[1,0.5]];portConstraint=eastwest;top=0;left=0;right=0;bottom=1;" parent="CWx529bwUQvuQtr-9syW-123" vertex="1">
          <mxGeometry y="30" width="197.1875" height="30" as="geometry" />
        </mxCell>
        <mxCell id="CWx529bwUQvuQtr-9syW-125" value="PK" style="shape=partialRectangle;connectable=0;fillColor=none;top=0;left=0;bottom=0;right=0;fontStyle=1;overflow=hidden;whiteSpace=wrap;html=1;" parent="CWx529bwUQvuQtr-9syW-124" vertex="1">
          <mxGeometry width="30" height="30" as="geometry">
            <mxRectangle width="30" height="30" as="alternateBounds" />
          </mxGeometry>
        </mxCell>
        <mxCell id="CWx529bwUQvuQtr-9syW-126" value="PaymentId: UUID" style="shape=partialRectangle;connectable=0;fillColor=none;top=0;left=0;bottom=0;right=0;align=left;spacingLeft=6;fontStyle=5;overflow=hidden;whiteSpace=wrap;html=1;" parent="CWx529bwUQvuQtr-9syW-124" vertex="1">
          <mxGeometry x="30" width="167.1875" height="30" as="geometry">
            <mxRectangle width="167.1875" height="30" as="alternateBounds" />
          </mxGeometry>
        </mxCell>
        <mxCell id="CWx529bwUQvuQtr-9syW-127" value="" style="shape=tableRow;horizontal=0;startSize=0;swimlaneHead=0;swimlaneBody=0;fillColor=none;collapsible=0;dropTarget=0;points=[[0,0.5],[1,0.5]];portConstraint=eastwest;top=0;left=0;right=0;bottom=0;" parent="CWx529bwUQvuQtr-9syW-123" vertex="1">
          <mxGeometry y="60" width="197.1875" height="30" as="geometry" />
        </mxCell>
        <mxCell id="CWx529bwUQvuQtr-9syW-128" value="" style="shape=partialRectangle;connectable=0;fillColor=none;top=0;left=0;bottom=0;right=0;editable=1;overflow=hidden;whiteSpace=wrap;html=1;" parent="CWx529bwUQvuQtr-9syW-127" vertex="1">
          <mxGeometry width="30" height="30" as="geometry">
            <mxRectangle width="30" height="30" as="alternateBounds" />
          </mxGeometry>
        </mxCell>
        <mxCell id="CWx529bwUQvuQtr-9syW-129" value="UserEmail: Varchar(50)" style="shape=partialRectangle;connectable=0;fillColor=none;top=0;left=0;bottom=0;right=0;align=left;spacingLeft=6;overflow=hidden;whiteSpace=wrap;html=1;" parent="CWx529bwUQvuQtr-9syW-127" vertex="1">
          <mxGeometry x="30" width="167.1875" height="30" as="geometry">
            <mxRectangle width="167.1875" height="30" as="alternateBounds" />
          </mxGeometry>
        </mxCell>
        <mxCell id="CWx529bwUQvuQtr-9syW-130" value="" style="shape=tableRow;horizontal=0;startSize=0;swimlaneHead=0;swimlaneBody=0;fillColor=none;collapsible=0;dropTarget=0;points=[[0,0.5],[1,0.5]];portConstraint=eastwest;top=0;left=0;right=0;bottom=0;" parent="CWx529bwUQvuQtr-9syW-123" vertex="1">
          <mxGeometry y="90" width="197.1875" height="30" as="geometry" />
        </mxCell>
        <mxCell id="CWx529bwUQvuQtr-9syW-131" value="FK" style="shape=partialRectangle;connectable=0;fillColor=none;top=0;left=0;bottom=0;right=0;editable=1;overflow=hidden;whiteSpace=wrap;html=1;" parent="CWx529bwUQvuQtr-9syW-130" vertex="1">
          <mxGeometry width="30" height="30" as="geometry">
            <mxRectangle width="30" height="30" as="alternateBounds" />
          </mxGeometry>
        </mxCell>
        <mxCell id="CWx529bwUQvuQtr-9syW-132" value="EventId" style="shape=partialRectangle;connectable=0;fillColor=none;top=0;left=0;bottom=0;right=0;align=left;spacingLeft=6;overflow=hidden;whiteSpace=wrap;html=1;" parent="CWx529bwUQvuQtr-9syW-130" vertex="1">
          <mxGeometry x="30" width="167.1875" height="30" as="geometry">
            <mxRectangle width="167.1875" height="30" as="alternateBounds" />
          </mxGeometry>
        </mxCell>
        <mxCell id="CWx529bwUQvuQtr-9syW-180" value="" style="shape=tableRow;horizontal=0;startSize=0;swimlaneHead=0;swimlaneBody=0;fillColor=none;collapsible=0;dropTarget=0;points=[[0,0.5],[1,0.5]];portConstraint=eastwest;top=0;left=0;right=0;bottom=0;" parent="CWx529bwUQvuQtr-9syW-123" vertex="1">
          <mxGeometry y="120" width="197.1875" height="30" as="geometry" />
        </mxCell>
        <mxCell id="CWx529bwUQvuQtr-9syW-181" value="" style="shape=partialRectangle;connectable=0;fillColor=none;top=0;left=0;bottom=0;right=0;editable=1;overflow=hidden;" parent="CWx529bwUQvuQtr-9syW-180" vertex="1">
          <mxGeometry width="30" height="30" as="geometry">
            <mxRectangle width="30" height="30" as="alternateBounds" />
          </mxGeometry>
        </mxCell>
        <mxCell id="CWx529bwUQvuQtr-9syW-182" value="PaymentType :Varchar(50)" style="shape=partialRectangle;connectable=0;fillColor=none;top=0;left=0;bottom=0;right=0;align=left;spacingLeft=6;overflow=hidden;" parent="CWx529bwUQvuQtr-9syW-180" vertex="1">
          <mxGeometry x="30" width="167.1875" height="30" as="geometry">
            <mxRectangle width="167.1875" height="30" as="alternateBounds" />
          </mxGeometry>
        </mxCell>
        <mxCell id="Yl3e_CTk1hAQHEEqxFKt-1" value="" style="shape=tableRow;horizontal=0;startSize=0;swimlaneHead=0;swimlaneBody=0;fillColor=none;collapsible=0;dropTarget=0;points=[[0,0.5],[1,0.5]];portConstraint=eastwest;top=0;left=0;right=0;bottom=0;" parent="CWx529bwUQvuQtr-9syW-123" vertex="1">
          <mxGeometry y="150" width="197.1875" height="30" as="geometry" />
        </mxCell>
        <mxCell id="Yl3e_CTk1hAQHEEqxFKt-2" value="" style="shape=partialRectangle;connectable=0;fillColor=none;top=0;left=0;bottom=0;right=0;editable=1;overflow=hidden;" parent="Yl3e_CTk1hAQHEEqxFKt-1" vertex="1">
          <mxGeometry width="30" height="30" as="geometry">
            <mxRectangle width="30" height="30" as="alternateBounds" />
          </mxGeometry>
        </mxCell>
        <mxCell id="Yl3e_CTk1hAQHEEqxFKt-3" value="PaymentDate: TImeStamp" style="shape=partialRectangle;connectable=0;fillColor=none;top=0;left=0;bottom=0;right=0;align=left;spacingLeft=6;overflow=hidden;" parent="Yl3e_CTk1hAQHEEqxFKt-1" vertex="1">
          <mxGeometry x="30" width="167.1875" height="30" as="geometry">
            <mxRectangle width="167.1875" height="30" as="alternateBounds" />
          </mxGeometry>
        </mxCell>
        <mxCell id="Yl3e_CTk1hAQHEEqxFKt-4" value="" style="shape=tableRow;horizontal=0;startSize=0;swimlaneHead=0;swimlaneBody=0;fillColor=none;collapsible=0;dropTarget=0;points=[[0,0.5],[1,0.5]];portConstraint=eastwest;top=0;left=0;right=0;bottom=0;" parent="CWx529bwUQvuQtr-9syW-123" vertex="1">
          <mxGeometry y="180" width="197.1875" height="30" as="geometry" />
        </mxCell>
        <mxCell id="Yl3e_CTk1hAQHEEqxFKt-5" value="" style="shape=partialRectangle;connectable=0;fillColor=none;top=0;left=0;bottom=0;right=0;editable=1;overflow=hidden;" parent="Yl3e_CTk1hAQHEEqxFKt-4" vertex="1">
          <mxGeometry width="30" height="30" as="geometry">
            <mxRectangle width="30" height="30" as="alternateBounds" />
          </mxGeometry>
        </mxCell>
        <mxCell id="Yl3e_CTk1hAQHEEqxFKt-6" value="PaymentState: Varchar(50)" style="shape=partialRectangle;connectable=0;fillColor=none;top=0;left=0;bottom=0;right=0;align=left;spacingLeft=6;overflow=hidden;" parent="Yl3e_CTk1hAQHEEqxFKt-4" vertex="1">
          <mxGeometry x="30" width="167.1875" height="30" as="geometry">
            <mxRectangle width="167.1875" height="30" as="alternateBounds" />
          </mxGeometry>
        </mxCell>
        <mxCell id="Yl3e_CTk1hAQHEEqxFKt-7" value="" style="shape=tableRow;horizontal=0;startSize=0;swimlaneHead=0;swimlaneBody=0;fillColor=none;collapsible=0;dropTarget=0;points=[[0,0.5],[1,0.5]];portConstraint=eastwest;top=0;left=0;right=0;bottom=0;" parent="CWx529bwUQvuQtr-9syW-123" vertex="1">
          <mxGeometry y="210" width="197.1875" height="30" as="geometry" />
        </mxCell>
        <mxCell id="Yl3e_CTk1hAQHEEqxFKt-8" value="" style="shape=partialRectangle;connectable=0;fillColor=none;top=0;left=0;bottom=0;right=0;editable=1;overflow=hidden;" parent="Yl3e_CTk1hAQHEEqxFKt-7" vertex="1">
          <mxGeometry width="30" height="30" as="geometry">
            <mxRectangle width="30" height="30" as="alternateBounds" />
          </mxGeometry>
        </mxCell>
        <mxCell id="Yl3e_CTk1hAQHEEqxFKt-9" value="PaymentAmount: Money" style="shape=partialRectangle;connectable=0;fillColor=none;top=0;left=0;bottom=0;right=0;align=left;spacingLeft=6;overflow=hidden;" parent="Yl3e_CTk1hAQHEEqxFKt-7" vertex="1">
          <mxGeometry x="30" width="167.1875" height="30" as="geometry">
            <mxRectangle width="167.1875" height="30" as="alternateBounds" />
          </mxGeometry>
        </mxCell>
        <mxCell id="CWx529bwUQvuQtr-9syW-136" value="Equipments" style="shape=table;startSize=30;container=1;collapsible=1;childLayout=tableLayout;fixedRows=1;rowLines=0;fontStyle=1;align=center;resizeLast=1;html=1;" parent="1" vertex="1">
          <mxGeometry x="55" y="636" width="183.75" height="150" as="geometry" />
        </mxCell>
        <mxCell id="CWx529bwUQvuQtr-9syW-137" value="" style="shape=tableRow;horizontal=0;startSize=0;swimlaneHead=0;swimlaneBody=0;fillColor=none;collapsible=0;dropTarget=0;points=[[0,0.5],[1,0.5]];portConstraint=eastwest;top=0;left=0;right=0;bottom=1;" parent="CWx529bwUQvuQtr-9syW-136" vertex="1">
          <mxGeometry y="30" width="183.75" height="30" as="geometry" />
        </mxCell>
        <mxCell id="CWx529bwUQvuQtr-9syW-138" value="PK" style="shape=partialRectangle;connectable=0;fillColor=none;top=0;left=0;bottom=0;right=0;fontStyle=1;overflow=hidden;whiteSpace=wrap;html=1;" parent="CWx529bwUQvuQtr-9syW-137" vertex="1">
          <mxGeometry width="30" height="30" as="geometry">
            <mxRectangle width="30" height="30" as="alternateBounds" />
          </mxGeometry>
        </mxCell>
        <mxCell id="CWx529bwUQvuQtr-9syW-139" value="EquipmentId: UUID" style="shape=partialRectangle;connectable=0;fillColor=none;top=0;left=0;bottom=0;right=0;align=left;spacingLeft=6;fontStyle=5;overflow=hidden;whiteSpace=wrap;html=1;" parent="CWx529bwUQvuQtr-9syW-137" vertex="1">
          <mxGeometry x="30" width="153.75" height="30" as="geometry">
            <mxRectangle width="153.75" height="30" as="alternateBounds" />
          </mxGeometry>
        </mxCell>
        <mxCell id="CWx529bwUQvuQtr-9syW-140" value="" style="shape=tableRow;horizontal=0;startSize=0;swimlaneHead=0;swimlaneBody=0;fillColor=none;collapsible=0;dropTarget=0;points=[[0,0.5],[1,0.5]];portConstraint=eastwest;top=0;left=0;right=0;bottom=0;" parent="CWx529bwUQvuQtr-9syW-136" vertex="1">
          <mxGeometry y="60" width="183.75" height="30" as="geometry" />
        </mxCell>
        <mxCell id="CWx529bwUQvuQtr-9syW-141" value="FK" style="shape=partialRectangle;connectable=0;fillColor=none;top=0;left=0;bottom=0;right=0;editable=1;overflow=hidden;whiteSpace=wrap;html=1;" parent="CWx529bwUQvuQtr-9syW-140" vertex="1">
          <mxGeometry width="30" height="30" as="geometry">
            <mxRectangle width="30" height="30" as="alternateBounds" />
          </mxGeometry>
        </mxCell>
        <mxCell id="CWx529bwUQvuQtr-9syW-142" value="PlayerId" style="shape=partialRectangle;connectable=0;fillColor=none;top=0;left=0;bottom=0;right=0;align=left;spacingLeft=6;overflow=hidden;whiteSpace=wrap;html=1;" parent="CWx529bwUQvuQtr-9syW-140" vertex="1">
          <mxGeometry x="30" width="153.75" height="30" as="geometry">
            <mxRectangle width="153.75" height="30" as="alternateBounds" />
          </mxGeometry>
        </mxCell>
        <mxCell id="CWx529bwUQvuQtr-9syW-143" value="" style="shape=tableRow;horizontal=0;startSize=0;swimlaneHead=0;swimlaneBody=0;fillColor=none;collapsible=0;dropTarget=0;points=[[0,0.5],[1,0.5]];portConstraint=eastwest;top=0;left=0;right=0;bottom=0;" parent="CWx529bwUQvuQtr-9syW-136" vertex="1">
          <mxGeometry y="90" width="183.75" height="30" as="geometry" />
        </mxCell>
        <mxCell id="CWx529bwUQvuQtr-9syW-144" value="FK" style="shape=partialRectangle;connectable=0;fillColor=none;top=0;left=0;bottom=0;right=0;editable=1;overflow=hidden;whiteSpace=wrap;html=1;" parent="CWx529bwUQvuQtr-9syW-143" vertex="1">
          <mxGeometry width="30" height="30" as="geometry">
            <mxRectangle width="30" height="30" as="alternateBounds" />
          </mxGeometry>
        </mxCell>
        <mxCell id="CWx529bwUQvuQtr-9syW-145" value="ItemId" style="shape=partialRectangle;connectable=0;fillColor=none;top=0;left=0;bottom=0;right=0;align=left;spacingLeft=6;overflow=hidden;whiteSpace=wrap;html=1;" parent="CWx529bwUQvuQtr-9syW-143" vertex="1">
          <mxGeometry x="30" width="153.75" height="30" as="geometry">
            <mxRectangle width="153.75" height="30" as="alternateBounds" />
          </mxGeometry>
        </mxCell>
        <mxCell id="CWx529bwUQvuQtr-9syW-146" value="" style="shape=tableRow;horizontal=0;startSize=0;swimlaneHead=0;swimlaneBody=0;fillColor=none;collapsible=0;dropTarget=0;points=[[0,0.5],[1,0.5]];portConstraint=eastwest;top=0;left=0;right=0;bottom=0;" parent="CWx529bwUQvuQtr-9syW-136" vertex="1">
          <mxGeometry y="120" width="183.75" height="30" as="geometry" />
        </mxCell>
        <mxCell id="CWx529bwUQvuQtr-9syW-147" value="" style="shape=partialRectangle;connectable=0;fillColor=none;top=0;left=0;bottom=0;right=0;editable=1;overflow=hidden;whiteSpace=wrap;html=1;" parent="CWx529bwUQvuQtr-9syW-146" vertex="1">
          <mxGeometry width="30" height="30" as="geometry">
            <mxRectangle width="30" height="30" as="alternateBounds" />
          </mxGeometry>
        </mxCell>
        <mxCell id="CWx529bwUQvuQtr-9syW-148" value="ItemState: Varchar(50)" style="shape=partialRectangle;connectable=0;fillColor=none;top=0;left=0;bottom=0;right=0;align=left;spacingLeft=6;overflow=hidden;whiteSpace=wrap;html=1;" parent="CWx529bwUQvuQtr-9syW-146" vertex="1">
          <mxGeometry x="30" width="153.75" height="30" as="geometry">
            <mxRectangle width="153.75" height="30" as="alternateBounds" />
          </mxGeometry>
        </mxCell>
        <mxCell id="CWx529bwUQvuQtr-9syW-183" value="" style="shape=tableRow;horizontal=0;startSize=0;swimlaneHead=0;swimlaneBody=0;fillColor=none;collapsible=0;dropTarget=0;points=[[0,0.5],[1,0.5]];portConstraint=eastwest;top=0;left=0;right=0;bottom=0;" parent="1" vertex="1">
          <mxGeometry x="340" y="200" width="250" height="30" as="geometry" />
        </mxCell>
        <mxCell id="CWx529bwUQvuQtr-9syW-184" value="" style="shape=partialRectangle;connectable=0;fillColor=none;top=0;left=0;bottom=0;right=0;fontStyle=0;overflow=hidden;whiteSpace=wrap;html=1;" parent="CWx529bwUQvuQtr-9syW-183" vertex="1">
          <mxGeometry width="30" height="30" as="geometry">
            <mxRectangle width="30" height="30" as="alternateBounds" />
          </mxGeometry>
        </mxCell>
        <mxCell id="CWx529bwUQvuQtr-9syW-196" value="" style="edgeStyle=orthogonalEdgeStyle;fontSize=12;html=1;endArrow=ERoneToMany;rounded=0;exitX=1;exitY=0.5;exitDx=0;exitDy=0;entryX=0;entryY=0.5;entryDx=0;entryDy=0;" parent="1" source="C-vyLk0tnHw3VtMMgP7b-24" target="C-vyLk0tnHw3VtMMgP7b-6" edge="1">
          <mxGeometry width="100" height="100" relative="1" as="geometry">
            <mxPoint x="-355" y="528.88" as="sourcePoint" />
            <mxPoint x="-255" y="428.88" as="targetPoint" />
            <Array as="points">
              <mxPoint x="278" y="-2" />
              <mxPoint x="278" y="163" />
            </Array>
          </mxGeometry>
        </mxCell>
        <mxCell id="CWx529bwUQvuQtr-9syW-199" value="" style="edgeStyle=orthogonalEdgeStyle;fontSize=12;html=1;endArrow=ERoneToMany;rounded=0;exitX=0;exitY=0.5;exitDx=0;exitDy=0;entryX=1;entryY=0.5;entryDx=0;entryDy=0;" parent="1" source="C-vyLk0tnHw3VtMMgP7b-24" target="CWx529bwUQvuQtr-9syW-72" edge="1">
          <mxGeometry width="100" height="100" relative="1" as="geometry">
            <mxPoint x="-53" y="399" as="sourcePoint" />
            <mxPoint x="-16" y="329" as="targetPoint" />
          </mxGeometry>
        </mxCell>
        <mxCell id="CWx529bwUQvuQtr-9syW-201" value="" style="edgeStyle=entityRelationEdgeStyle;fontSize=12;html=1;endArrow=ERmany;startArrow=ERmany;rounded=0;exitX=1;exitY=0.5;exitDx=0;exitDy=0;entryX=0;entryY=0.5;entryDx=0;entryDy=0;" parent="1" source="CWx529bwUQvuQtr-9syW-140" target="CWx529bwUQvuQtr-9syW-82" edge="1">
          <mxGeometry width="100" height="100" relative="1" as="geometry">
            <mxPoint x="383" y="422" as="sourcePoint" />
            <mxPoint x="483" y="322" as="targetPoint" />
          </mxGeometry>
        </mxCell>
        <mxCell id="CWx529bwUQvuQtr-9syW-210" value="" style="edgeStyle=orthogonalEdgeStyle;fontSize=12;html=1;endArrow=ERmany;startArrow=ERmany;rounded=0;entryX=0;entryY=0.5;entryDx=0;entryDy=0;exitX=0;exitY=0.5;exitDx=0;exitDy=0;" parent="1" source="CWx529bwUQvuQtr-9syW-143" target="CWx529bwUQvuQtr-9syW-98" edge="1">
          <mxGeometry width="100" height="100" relative="1" as="geometry">
            <mxPoint x="-13" y="678" as="sourcePoint" />
            <mxPoint x="398" y="326" as="targetPoint" />
          </mxGeometry>
        </mxCell>
        <mxCell id="CWx529bwUQvuQtr-9syW-216" value="" style="edgeStyle=orthogonalEdgeStyle;fontSize=12;html=1;endArrow=ERmany;rounded=0;entryX=1;entryY=0.5;entryDx=0;entryDy=0;exitX=1;exitY=0.5;exitDx=0;exitDy=0;" parent="1" source="CWx529bwUQvuQtr-9syW-104" target="CWx529bwUQvuQtr-9syW-177" edge="1">
          <mxGeometry width="100" height="100" relative="1" as="geometry">
            <mxPoint x="479" y="420" as="sourcePoint" />
            <mxPoint x="579" y="320" as="targetPoint" />
            <Array as="points">
              <mxPoint x="287" y="463" />
              <mxPoint x="287" y="230" />
            </Array>
          </mxGeometry>
        </mxCell>
        <mxCell id="CWx529bwUQvuQtr-9syW-217" value="" style="edgeStyle=orthogonalEdgeStyle;fontSize=12;html=1;endArrow=ERoneToMany;rounded=0;exitX=1;exitY=0.5;exitDx=0;exitDy=0;entryX=0.001;entryY=0.367;entryDx=0;entryDy=0;entryPerimeter=0;" parent="1" source="CWx529bwUQvuQtr-9syW-75" target="CWx529bwUQvuQtr-9syW-91" edge="1">
          <mxGeometry width="100" height="100" relative="1" as="geometry">
            <mxPoint x="500" y="468" as="sourcePoint" />
            <mxPoint x="415" y="856" as="targetPoint" />
            <Array as="points">
              <mxPoint x="-20" y="238" />
              <mxPoint x="-20" y="856" />
              <mxPoint x="415" y="856" />
              <mxPoint x="415" y="858" />
            </Array>
          </mxGeometry>
        </mxCell>
        <mxCell id="CWx529bwUQvuQtr-9syW-221" value="" style="fontSize=12;html=1;endArrow=ERoneToMany;rounded=0;entryX=0;entryY=0.5;entryDx=0;entryDy=0;" parent="1" source="4wsXO7ddn7WPQWlqq9JL-21" target="CWx529bwUQvuQtr-9syW-130" edge="1">
          <mxGeometry width="100" height="100" relative="1" as="geometry">
            <mxPoint x="526" y="472" as="sourcePoint" />
            <mxPoint x="626" y="372" as="targetPoint" />
          </mxGeometry>
        </mxCell>
        <mxCell id="CWx529bwUQvuQtr-9syW-223" value="" style="edgeStyle=orthogonalEdgeStyle;fontSize=12;html=1;endArrow=ERoneToMany;rounded=0;exitX=1;exitY=0.5;exitDx=0;exitDy=0;entryX=1;entryY=0.5;entryDx=0;entryDy=0;" parent="1" source="4wsXO7ddn7WPQWlqq9JL-21" target="CWx529bwUQvuQtr-9syW-6" edge="1">
          <mxGeometry width="100" height="100" relative="1" as="geometry">
            <mxPoint x="508" y="341" as="sourcePoint" />
            <mxPoint x="608" y="241" as="targetPoint" />
            <Array as="points">
              <mxPoint x="637" y="252" />
              <mxPoint x="637" y="-80" />
            </Array>
          </mxGeometry>
        </mxCell>
        <mxCell id="9Tws9IO79iOCBR9Tj7Y1-1" value="" style="edgeStyle=orthogonalEdgeStyle;fontSize=12;html=1;endArrow=ERmandOne;startArrow=ERmandOne;rounded=0;exitX=1;exitY=0.5;exitDx=0;exitDy=0;entryX=1;entryY=0.5;entryDx=0;entryDy=0;" parent="1" source="CWx529bwUQvuQtr-9syW-111" target="CWx529bwUQvuQtr-9syW-30" edge="1">
          <mxGeometry width="100" height="100" relative="1" as="geometry">
            <mxPoint x="1187" y="743" as="sourcePoint" />
            <mxPoint x="1287" y="643" as="targetPoint" />
          </mxGeometry>
        </mxCell>
        <mxCell id="9Tws9IO79iOCBR9Tj7Y1-2" value="" style="edgeStyle=orthogonalEdgeStyle;fontSize=12;html=1;endArrow=ERmany;startArrow=ERmany;rounded=0;entryX=1;entryY=0.5;entryDx=0;entryDy=0;" parent="1" target="C-vyLk0tnHw3VtMMgP7b-3" edge="1">
          <mxGeometry width="100" height="100" relative="1" as="geometry">
            <mxPoint x="600" y="750" as="sourcePoint" />
            <mxPoint x="634.8571428571427" y="132" as="targetPoint" />
            <Array as="points">
              <mxPoint x="680" y="750" />
              <mxPoint x="680" y="132" />
            </Array>
          </mxGeometry>
        </mxCell>
      </root>
    </mxGraphModel>
  </diagram>
</mxfile>
